# Blender v2.79 (sub 1) OBJ File: 'entity_detector.blend'
# www.blender.org
mtllib entity_detector_simple.mtl
o Cube
v 0.000000 0.000000 1.000000
v 0.312500 0.303075 0.687500
v 0.000000 0.000000 0.000000
v 0.312500 0.303075 0.312500
v 1.000000 0.000000 1.000000
v 0.687500 0.303075 0.687500
v 1.000000 0.000000 0.000000
v 0.687500 0.303075 0.312500
v 0.000000 0.250000 1.000000
v 0.000000 0.250000 0.000000
v 1.000000 0.250000 0.000000
v 1.000000 0.250000 1.000000
v 0.437500 0.531566 0.562500
v 0.437500 0.531566 0.437500
v 0.562500 0.531566 0.437500
v 0.562500 0.531566 0.562500
v 0.312500 0.490575 0.687500
v 0.312500 0.490575 0.312500
v 0.687500 0.490575 0.312500
v 0.687500 0.490575 0.687500
v 0.185938 0.674100 0.814062
v 0.185938 0.674100 0.185938
v 0.814062 0.674100 0.185938
v 0.814062 0.674100 0.814062
v 0.437500 0.602833 0.437500
v 0.437500 0.602833 0.562500
v 0.562500 0.602833 0.562500
v 0.562500 0.602833 0.437500
v 0.248438 0.811600 0.751562
v 0.248438 0.811600 0.248438
v 0.751562 0.811600 0.248438
v 0.751562 0.811600 0.751562
v 0.185938 0.811600 0.814062
v 0.185938 0.811600 0.185938
v 0.814062 0.811600 0.185938
v 0.814062 0.811600 0.814062
v 0.248438 0.742850 0.751562
v 0.248438 0.742850 0.248438
v 0.751562 0.742850 0.248438
v 0.751562 0.742850 0.751562
v 0.248438 0.811600 0.751562
v 0.248438 0.811600 0.248438
v 0.751562 0.811600 0.248438
v 0.751562 0.811600 0.751562
vt 0.000000 0.468750
vt 0.000000 0.406250
vt 0.250000 0.406250
vt 0.250000 0.468750
vt 0.000000 0.468750
vt 0.000000 0.406250
vt 0.250000 0.406250
vt 0.250000 0.468750
vt 0.250000 0.406250
vt 0.250000 0.468750
vt 0.000000 0.468750
vt 0.000000 0.406250
vt 0.250000 0.406250
vt 0.250000 0.468750
vt 0.000000 0.468750
vt 0.000000 0.406250
vt 0.250000 0.750000
vt 0.250000 1.000000
vt 0.000000 1.000000
vt 0.000000 0.750000
vt 0.281250 0.796875
vt 0.375000 0.796875
vt 0.375000 0.859375
vt 0.281250 0.859375
vt 0.078125 0.578125
vt 0.078125 0.671875
vt 0.000000 0.750000
vt 0.000000 0.500000
vt 0.171875 0.671875
vt 0.250000 0.750000
vt 0.171875 0.578125
vt 0.250000 0.500000
vt 0.375000 0.859375
vt 0.281250 0.859375
vt 0.281250 0.796875
vt 0.375000 0.796875
vt 0.281250 0.796875
vt 0.375000 0.796875
vt 0.375000 0.859375
vt 0.281250 0.859375
vt 0.281250 0.796875
vt 0.375000 0.796875
vt 0.375000 0.859375
vt 0.281250 0.859375
vt 0.312500 0.906250
vt 0.312500 0.937500
vt 0.281250 0.968750
vt 0.281250 0.875000
vt 0.343750 0.937500
vt 0.375000 0.968750
vt 0.343750 0.906250
vt 0.375000 0.875000
vt 0.375000 0.671875
vt 0.375000 0.640625
vt 0.437500 0.578125
vt 0.437500 0.734375
vt 0.343750 0.640625
vt 0.343750 0.671875
vt 0.281250 0.734375
vt 0.281250 0.578125
vt 0.281250 0.515625
vt 0.437500 0.515625
vt 0.437500 0.562500
vt 0.281250 0.562500
vt 0.281250 0.750000
vt 0.312500 0.750000
vt 0.312500 0.781250
vt 0.281250 0.781250
vt 0.281250 0.750000
vt 0.312500 0.750000
vt 0.312500 0.781250
vt 0.281250 0.781250
vt 0.281250 0.750000
vt 0.312500 0.750000
vt 0.312500 0.781250
vt 0.281250 0.781250
vt 0.281250 0.750000
vt 0.312500 0.750000
vt 0.312500 0.781250
vt 0.281250 0.781250
vt 0.406250 0.804688
vt 0.531250 0.804688
vt 0.531250 0.828125
vt 0.406250 0.828125
vt 0.437500 0.562500
vt 0.281250 0.562500
vt 0.281250 0.515625
vt 0.437500 0.515625
vt 0.281250 0.515625
vt 0.437500 0.515625
vt 0.437500 0.562500
vt 0.281250 0.562500
vt 0.437500 0.562500
vt 0.281250 0.562500
vt 0.281250 0.515625
vt 0.437500 0.515625
vt 0.484375 0.625000
vt 0.484375 0.750000
vt 0.468750 0.765625
vt 0.468750 0.609375
vt 0.609375 0.750000
vt 0.625000 0.765625
vt 0.609375 0.625000
vt 0.625000 0.609375
vt 0.531250 0.968750
vt 0.406250 0.968750
vt 0.406250 0.843750
vt 0.531250 0.843750
vt 0.531250 0.828125
vt 0.406250 0.828125
vt 0.406250 0.804688
vt 0.531250 0.804688
vt 0.406250 0.804688
vt 0.531250 0.804688
vt 0.531250 0.828125
vt 0.406250 0.828125
vt 0.531250 0.828125
vt 0.406250 0.828125
vt 0.406250 0.804688
vt 0.531250 0.804688
vt 0.609375 0.750000
vt 0.609375 0.625000
vt 0.296875 0.359375
vt 0.296875 0.484375
vt 0.421875 0.484375
vt 0.421875 0.359375
vt 0.406250 0.828125
vt 0.531250 0.828125
vt 0.531250 0.804688
vt 0.406250 0.804688
vt 0.406250 0.828125
vt 0.531250 0.828125
vn -1.0000 0.0000 0.0000
vn 0.0000 0.0000 -1.0000
vn 1.0000 0.0000 0.0000
vn 0.0000 0.0000 1.0000
vn 0.0000 -1.0000 0.0000
vn -0.1674 0.9859 0.0000
vn 0.0000 0.9859 -0.1674
vn 0.1674 0.9859 0.0000
vn 0.0000 0.9859 0.1674
vn -0.3116 0.9502 0.0000
vn 0.0000 0.9502 -0.3116
vn 0.3116 0.9502 0.0000
vn 0.0000 0.9502 0.3116
vn 0.2726 -0.9621 0.0000
vn -0.2726 -0.9621 0.0000
vn 0.0000 -0.9621 0.2726
vn 0.0000 -0.9621 -0.2726
vn 0.0000 1.0000 0.0000
usemtl Material
f 1/1/1 9/2/1 10/3/1 3/4/1
f 3/5/2 10/6/2 11/7/2 7/8/2
f 7/9/3 11/10/3 12/11/3 5/12/3
f 5/13/4 12/14/4 9/15/4 1/16/4
f 3/17/5 7/18/5 5/19/5 1/20/5
f 2/21/4 6/22/4 20/23/4 17/24/4
f 2/25/6 4/26/6 10/27/6 9/28/6
f 4/26/7 8/29/7 11/30/7 10/27/7
f 8/29/8 6/31/8 12/32/8 11/30/8
f 6/31/9 2/25/9 9/28/9 12/32/9
f 8/33/2 4/34/2 18/35/2 19/36/2
f 6/37/3 8/38/3 19/39/3 20/40/3
f 4/41/1 2/42/1 17/43/1 18/44/1
f 13/45/10 14/46/10 18/47/10 17/48/10
f 14/46/11 15/49/11 19/50/11 18/47/11
f 15/49/12 16/51/12 20/52/12 19/50/12
f 16/51/13 13/45/13 17/48/13 20/52/13
f 27/53/14 28/54/14 23/55/14 24/56/14
f 25/57/15 26/58/15 21/59/15 22/60/15
f 26/58/16 27/53/16 24/56/16 21/59/16
f 28/54/17 25/57/17 22/60/17 23/55/17
f 24/61/3 23/62/3 35/63/3 36/64/3
f 16/65/3 15/66/3 28/67/3 27/68/3
f 15/69/2 14/70/2 25/71/2 28/72/2
f 13/73/4 16/74/4 27/75/4 26/76/4
f 14/77/1 13/78/1 26/79/1 25/80/1
f 32/81/1 31/82/1 39/83/1 40/84/1
f 22/85/1 21/86/1 33/87/1 34/88/1
f 21/89/4 24/90/4 36/91/4 33/92/4
f 23/93/2 22/94/2 34/95/2 35/96/2
f 29/97/18 30/98/18 34/99/18 33/100/18
f 30/98/18 31/101/18 35/102/18 34/99/18
f 31/101/18 32/103/18 36/104/18 35/102/18
f 32/103/18 29/97/18 33/100/18 36/104/18
f 39/105/18 38/106/18 37/107/18 40/108/18
f 30/109/3 29/110/3 37/111/3 38/112/3
f 29/113/2 32/114/2 40/115/2 37/116/2
f 31/117/4 30/118/4 38/119/4 39/120/4
f 32/103/4 31/101/4 43/121/4 44/122/4
f 44/123/18 43/124/18 42/125/18 41/126/18
f 30/109/4 29/110/4 41/127/4 42/128/4
f 29/113/4 32/114/4 44/129/4 41/130/4
f 31/117/4 30/118/4 42/131/4 43/132/4
