# Blender v2.79 (sub 1) OBJ File: 'entity_marker.blend'
# www.blender.org
mtllib entity_marker.mtl
o Cube
v 0.000000 0.000000 1.000000
v 0.312500 0.303075 0.687500
v 0.000000 0.000000 0.000000
v 0.312500 0.303075 0.312500
v 1.000000 0.000000 1.000000
v 0.687500 0.303075 0.687500
v 1.000000 0.000000 0.000000
v 0.687500 0.303075 0.312500
v 0.000000 0.250000 1.000000
v 0.000000 0.250000 0.000000
v 1.000000 0.250000 0.000000
v 1.000000 0.250000 1.000000
v 0.437500 0.531566 0.562500
v 0.437500 0.531566 0.437500
v 0.562500 0.531566 0.437500
v 0.562500 0.531566 0.562500
v 0.312500 0.490575 0.687500
v 0.312500 0.490575 0.312500
v 0.687500 0.490575 0.312500
v 0.687500 0.490575 0.687500
v 0.125000 0.674100 0.875000
v 0.125000 0.674100 0.125000
v 0.875000 0.674100 0.125000
v 0.875000 0.674100 0.875000
v 0.437500 0.602833 0.437500
v 0.437500 0.602833 0.562500
v 0.562500 0.602833 0.562500
v 0.562500 0.602833 0.437500
v 0.062500 0.824100 0.062500
v 0.937500 0.824100 0.062500
v 0.062500 0.824100 0.937500
v 0.937500 0.824100 0.937500
v 0.931836 0.749100 0.931836
v 0.931836 0.749100 0.068164
v 0.068164 0.749100 0.068164
v 0.068164 0.749100 0.931836
v 0.000000 0.824100 1.000000
v 0.000000 0.824100 0.000000
v 1.000000 0.824100 0.000000
v 1.000000 0.824100 1.000000
v 0.125000 0.749100 0.875000
v 0.125000 0.749100 0.125000
v 0.875000 0.749100 0.125000
v 0.875000 0.749100 0.875000
v 0.437479 0.674100 0.562521
v 0.437479 0.674100 0.437479
v 0.562521 0.674100 0.437479
v 0.562521 0.674100 0.562521
v 0.249979 0.674100 0.750021
v 0.249979 0.674100 0.249979
v 0.750021 0.674100 0.249979
v 0.750021 0.674100 0.750021
v 0.484375 0.671065 0.515625
v 0.484375 0.858565 0.515625
v 0.484375 0.671065 0.484375
v 0.484375 0.858565 0.484375
v 0.515625 0.671065 0.515625
v 0.515625 0.858565 0.515625
v 0.515625 0.671065 0.484375
v 0.515625 0.858565 0.484375
vt 0.000000 0.468750
vt 0.000000 0.406250
vt 0.250000 0.406250
vt 0.250000 0.468750
vt 0.000000 0.468750
vt 0.000000 0.406250
vt 0.250000 0.406250
vt 0.250000 0.468750
vt 0.250000 0.406250
vt 0.250000 0.468750
vt 0.000000 0.468750
vt 0.000000 0.406250
vt 0.250000 0.406250
vt 0.250000 0.468750
vt 0.000000 0.468750
vt 0.000000 0.406250
vt 0.250000 0.750000
vt 0.250000 1.000000
vt 0.000000 1.000000
vt 0.000000 0.750000
vt 0.281250 0.796875
vt 0.375000 0.796875
vt 0.375000 0.859375
vt 0.281250 0.859375
vt 0.078125 0.578125
vt 0.078125 0.671875
vt 0.000000 0.750000
vt 0.000000 0.500000
vt 0.171875 0.671875
vt 0.250000 0.750000
vt 0.171875 0.578125
vt 0.250000 0.500000
vt 0.375000 0.859375
vt 0.281250 0.859375
vt 0.281250 0.796875
vt 0.375000 0.796875
vt 0.281250 0.796875
vt 0.375000 0.796875
vt 0.375000 0.859375
vt 0.281250 0.859375
vt 0.281250 0.796875
vt 0.375000 0.796875
vt 0.375000 0.859375
vt 0.281250 0.859375
vt 0.312500 0.906250
vt 0.312500 0.937500
vt 0.281250 0.968750
vt 0.281250 0.875000
vt 0.343750 0.937500
vt 0.375000 0.968750
vt 0.343750 0.906250
vt 0.375000 0.875000
vt 0.375000 0.625000
vt 0.406250 0.625000
vt 0.484375 0.703125
vt 0.296875 0.703125
vt 0.406250 0.593750
vt 0.375000 0.593750
vt 0.296875 0.515625
vt 0.484375 0.515625
vt 0.406250 0.625000
vt 0.406250 0.593750
vt 0.484375 0.515625
vt 0.484375 0.703125
vt 0.375000 0.593750
vt 0.375000 0.625000
vt 0.296875 0.703125
vt 0.296875 0.515625
vt 0.281250 0.750000
vt 0.312500 0.750000
vt 0.312500 0.781250
vt 0.281250 0.781250
vt 0.281250 0.750000
vt 0.312500 0.750000
vt 0.312500 0.781250
vt 0.281250 0.781250
vt 0.281250 0.750000
vt 0.312500 0.750000
vt 0.312500 0.781250
vt 0.281250 0.781250
vt 0.281250 0.750000
vt 0.312500 0.750000
vt 0.312500 0.781250
vt 0.281250 0.781250
vt 0.218750 0.312500
vt 0.031250 0.312500
vt 0.015625 0.343750
vt 0.234375 0.343750
vt 0.265625 0.250000
vt 0.265625 0.031250
vt 0.281250 0.046875
vt 0.281250 0.234375
vt 0.015625 0.343750
vt 0.250000 0.375000
vt 0.000000 0.375000
vt 0.031250 0.312500
vt 0.031250 0.312500
vt 0.218750 0.312500
vt 0.234375 0.343750
vt 0.015625 0.343750
vt 0.015625 0.343750
vt 0.234375 0.343750
vt 0.250000 0.375000
vt 0.000000 0.375000
vt 0.234375 0.343750
vt 0.250000 0.375000
vt 0.000000 0.375000
vt 0.250000 0.375000
vt 0.000000 0.375000
vt 0.218750 0.312500
vt 0.015625 0.015625
vt 0.015625 0.234375
vt 0.000000 0.250000
vt 0.000000 0.000000
vt 0.234375 0.234375
vt 0.250000 0.250000
vt 0.234375 0.015625
vt 0.250000 0.000000
vt 0.515625 0.046875
vt 0.703125 0.046875
vt 0.671875 0.078125
vt 0.546875 0.078125
vt 0.484375 0.031250
vt 0.484375 0.250000
vt 0.468750 0.234375
vt 0.468750 0.046875
vt 0.437500 0.921875
vt 0.437500 0.953125
vt 0.406250 0.953125
vt 0.406250 0.921875
vt 0.703125 0.234375
vt 0.515625 0.234375
vt 0.546875 0.203125
vt 0.671875 0.203125
vt 0.781250 0.125000
vt 0.781250 0.156250
vt 0.734375 0.203125
vt 0.734375 0.078125
vt 0.812500 0.156250
vt 0.859375 0.203125
vt 0.812500 0.125000
vt 0.859375 0.078125
vt 0.421875 0.828125
vt 0.421875 0.890625
vt 0.406250 0.890625
vt 0.406250 0.828125
vt 0.421875 0.828125
vt 0.421875 0.890625
vt 0.406250 0.890625
vt 0.406250 0.828125
vt 0.421875 0.828125
vt 0.421875 0.890625
vt 0.406250 0.890625
vt 0.406250 0.828125
vt 0.421875 0.828125
vt 0.421875 0.890625
vt 0.406250 0.890625
vt 0.406250 0.828125
vt 0.453125 0.859375
vt 0.437500 0.859375
vt 0.437500 0.843750
vt 0.453125 0.843750
vt 0.453125 0.859375
vt 0.437500 0.859375
vt 0.437500 0.843750
vt 0.453125 0.843750
vn -1.0000 0.0000 0.0000
vn 0.0000 0.0000 -1.0000
vn 1.0000 0.0000 0.0000
vn 0.0000 0.0000 1.0000
vn 0.0000 -1.0000 0.0000
vn -0.1674 0.9859 0.0000
vn 0.0000 0.9859 -0.1674
vn 0.1674 0.9859 0.0000
vn 0.0000 0.9859 0.1674
vn -0.3116 0.9502 0.0000
vn 0.0000 0.9502 -0.3116
vn 0.3116 0.9502 0.0000
vn 0.0000 0.9502 0.3116
vn 0.2223 -0.9750 0.0000
vn -0.2223 -0.9750 0.0000
vn 0.0000 -0.9750 0.2223
vn 0.0000 -0.9750 -0.2223
vn 0.0000 -0.6040 0.7970
vn -0.7682 0.6402 0.0000
vn -0.7400 -0.6726 0.0000
vn -0.7970 -0.6040 0.0000
vn 0.0000 -0.6040 -0.7970
vn 0.0000 -0.6726 0.7400
vn 0.7400 -0.6726 0.0000
vn 0.0000 -0.6726 -0.7400
vn 0.7970 -0.6040 0.0000
vn 0.0000 1.0000 0.0000
vn -0.5146 0.8575 0.0000
vn 0.7682 0.6402 0.0000
vn 0.0000 0.6402 -0.7682
vn 0.0000 0.6402 0.7682
vn 0.5146 0.8575 0.0000
vn 0.0000 0.8575 -0.5146
vn 0.0000 0.8575 0.5146
usemtl Material
f 1/1/1 9/2/1 10/3/1 3/4/1
f 3/5/2 10/6/2 11/7/2 7/8/2
f 7/9/3 11/10/3 12/11/3 5/12/3
f 5/13/4 12/14/4 9/15/4 1/16/4
f 3/17/5 7/18/5 5/19/5 1/20/5
f 2/21/4 6/22/4 20/23/4 17/24/4
f 2/25/6 4/26/6 10/27/6 9/28/6
f 4/26/7 8/29/7 11/30/7 10/27/7
f 8/29/8 6/31/8 12/32/8 11/30/8
f 6/31/9 2/25/9 9/28/9 12/32/9
f 8/33/2 4/34/2 18/35/2 19/36/2
f 6/37/3 8/38/3 19/39/3 20/40/3
f 4/41/1 2/42/1 17/43/1 18/44/1
f 13/45/10 14/46/10 18/47/10 17/48/10
f 14/46/11 15/49/11 19/50/11 18/47/11
f 15/49/12 16/51/12 20/52/12 19/50/12
f 16/51/13 13/45/13 17/48/13 20/52/13
f 27/53/14 28/54/14 23/55/14 24/56/14
f 25/57/15 26/58/15 21/59/15 22/60/15
f 26/61/16 27/62/16 24/63/16 21/64/16
f 28/65/17 25/66/17 22/67/17 23/68/17
f 16/69/3 15/70/3 28/71/3 27/72/3
f 15/73/2 14/74/2 25/75/2 28/76/2
f 13/77/4 16/78/4 27/79/4 26/80/4
f 14/81/1 13/82/1 26/83/1 25/84/1
f 21/85/18 24/86/18 33/87/18 36/88/18
f 32/89/19 30/90/19 43/91/19 44/92/19
f 35/93/20 36/88/20 37/94/20 38/95/20
f 22/96/21 21/85/21 36/88/21 35/93/21
f 23/97/22 22/98/22 35/99/22 34/100/22
f 36/101/23 33/102/23 40/103/23 37/104/23
f 33/87/24 34/105/24 39/106/24 40/107/24
f 34/100/25 35/99/25 38/108/25 39/109/25
f 24/86/26 23/110/26 34/105/26 33/87/26
f 31/111/27 29/112/27 38/113/27 37/114/27
f 29/112/27 30/115/27 39/116/27 38/113/27
f 30/115/27 32/117/27 40/118/27 39/116/27
f 32/117/27 31/111/27 37/114/27 40/118/27
f 44/119/28 43/120/28 51/121/28 52/122/28
f 29/123/29 31/124/29 41/125/29 42/126/29
f 31/124/30 32/89/30 44/92/30 41/125/30
f 30/90/31 29/123/31 42/126/31 43/91/31
f 48/127/27 47/128/27 46/129/27 45/130/27
f 42/131/32 41/132/32 49/133/32 50/134/32
f 41/132/33 44/119/33 52/122/33 49/133/33
f 43/120/34 42/131/34 50/134/34 51/121/34
f 45/135/27 46/136/27 50/137/27 49/138/27
f 46/136/27 47/139/27 51/140/27 50/137/27
f 47/139/27 48/141/27 52/142/27 51/140/27
f 48/141/27 45/135/27 49/138/27 52/142/27
f 53/143/1 54/144/1 56/145/1 55/146/1
f 55/147/2 56/148/2 60/149/2 59/150/2
f 59/151/3 60/152/3 58/153/3 57/154/3
f 57/155/4 58/156/4 54/157/4 53/158/4
f 55/159/5 59/160/5 57/161/5 53/162/5
f 60/163/27 56/164/27 54/165/27 58/166/27
