# Blender v2.79 (sub 1) OBJ File: 'fuel_tank_corner.blend'
# www.blender.org
mtllib fuel_tank_corner.mtl
o Cube
v 0.000000 0.000000 0.000000
v 0.000000 0.000000 1.000000
v 0.000000 1.000000 0.000000
v 0.000000 1.000000 1.000000
v 1.000000 0.000000 0.000000
v 1.000000 1.000000 0.000000
vt 0.000224 0.749926
vt 0.250106 0.749926
vt 0.250106 0.999808
vt 0.499988 0.749926
vt 0.250069 1.000025
vt 0.499951 0.750144
vt 0.499951 1.000025
vt 0.000224 0.999808
vt 0.250106 0.500044
vt 0.499988 0.500044
vt 0.859722 0.500044
vt 0.859722 0.749926
vn -1.0000 0.0000 0.0000
vn 0.0000 -1.0000 0.0000
vn 0.0000 1.0000 0.0000
vn 0.0000 -0.0000 -1.0000
vn 0.7071 0.0000 0.7071
usemtl Material
s off
f 3/1/1 1/2/1 2/3/1
f 1/2/2 5/4/2 2/3/2
f 4/5/3 6/6/3 3/7/3
f 4/8/1 3/1/1 2/3/1
f 3/9/4 6/10/4 1/2/4
f 5/4/5 4/11/5 2/12/5
f 4/11/5 5/4/5 6/10/5
f 5/4/4 1/2/4 6/10/4
