# Blender v2.79 (sub 1) OBJ File: 'fuel_tank_corner.blend'
# www.blender.org
mtllib fuel_tank_corner.mtl
o Cube
v 0.000000 0.000000 0.000000
v 0.000000 0.000000 1.000000
v 0.000000 1.000000 0.000000
v 0.000000 1.000000 1.000000
v 1.000000 0.000000 0.000000
v 1.000000 1.000000 0.000000
vt 0.000000 0.750000
vt 0.250000 0.750000
vt 0.250000 1.000000
vt 0.679688 0.671875
vt 0.500000 0.500000
vt 0.859375 0.500000
vt 0.500000 0.500000
vt 0.859375 0.500000
vt 0.679688 0.671875
vt 0.000000 1.000000
vt 0.250000 0.500000
vt 0.500000 0.500000
vt 0.500000 0.750000
vt 0.859375 0.500000
vt 0.859375 0.750000
vn -1.0000 0.0000 0.0000
vn 0.0000 -1.0000 0.0000
vn 0.0000 1.0000 0.0000
vn 0.0000 -0.0000 -1.0000
vn 0.7071 0.0000 0.7071
usemtl Material
f 3/1/1 1/2/1 2/3/1
f 1/4/2 5/5/2 2/6/2
f 4/7/3 6/8/3 3/9/3
f 4/10/1 3/1/1 2/3/1
f 3/11/4 6/12/4 1/2/4
f 5/13/5 4/14/5 2/15/5
f 4/14/5 5/13/5 6/12/5
f 5/13/4 1/2/4 6/12/4
