# Blender v2.79 (sub 1) OBJ File: 'space_laser.blend'
# www.blender.org
mtllib laser.mtl
o Cube
v 0.000000 0.000000 1.000000
v 0.312500 0.303075 0.687500
v 0.000000 0.000000 0.000000
v 0.312500 0.303075 0.312500
v 1.000000 0.000000 1.000000
v 0.687500 0.303075 0.687500
v 1.000000 0.000000 0.000000
v 0.687500 0.303075 0.312500
v 0.000000 0.250000 1.000000
v 0.000000 0.250000 0.000000
v 1.000000 0.250000 0.000000
v 1.000000 0.250000 1.000000
v 0.437500 0.531566 0.562500
v 0.437500 0.531566 0.437500
v 0.562500 0.531566 0.437500
v 0.562500 0.531566 0.562500
v 0.312500 0.487569 0.687500
v 0.312500 0.487569 0.312500
v 0.687500 0.487569 0.312500
v 0.687500 0.487569 0.687500
v 0.437500 0.674100 0.562500
v 0.437500 0.674100 0.437500
v 0.562500 0.674100 0.437500
v 0.562500 0.674100 0.562500
v 0.312500 0.788991 0.687500
v 0.312500 0.788991 0.312500
v 0.687500 0.788991 0.312500
v 0.687500 0.788991 0.687500
v 0.250000 0.837595 0.750000
v 0.250000 0.837595 0.250000
v 0.750000 0.837595 0.250000
v 0.750000 0.837595 0.750000
v 0.250000 0.998081 0.750000
v 0.250000 0.998081 0.250000
v 0.750000 0.998081 0.250000
v 0.750000 0.998081 0.750000
v 0.312500 1.080274 0.687500
v 0.312500 1.080274 0.312500
v 0.687500 1.080274 0.312500
v 0.687500 1.080274 0.687500
v 0.437500 1.875000 0.562500
v 0.437500 1.875000 0.437500
v 0.562500 1.875000 0.437500
v 0.562500 1.875000 0.562500
v 0.406250 1.968750 0.593750
v 0.406250 1.968750 0.406250
v 0.593750 1.968750 0.406250
v 0.593750 1.968750 0.593750
v 0.468750 2.000000 0.531250
v 0.468750 2.000000 0.468750
v 0.531250 2.000000 0.468750
v 0.531250 2.000000 0.531250
v 0.312500 1.250000 0.687500
v 0.312500 1.187500 0.687500
v 0.312500 1.187500 0.312500
v 0.312500 1.250000 0.312500
v 0.687500 1.187500 0.687500
v 0.687500 1.250000 0.687500
v 0.687500 1.187500 0.312500
v 0.687500 1.250000 0.312500
v 0.250000 1.187500 0.250000
v 0.250000 1.187500 0.750000
v 0.250000 1.250000 0.750000
v 0.250000 1.250000 0.250000
v 0.750000 1.187500 0.250000
v 0.750000 1.250000 0.250000
v 0.750000 1.187500 0.750000
v 0.750000 1.250000 0.750000
v 0.343750 1.425000 0.656250
v 0.343750 1.362500 0.656250
v 0.343750 1.362500 0.343750
v 0.343750 1.425000 0.343750
v 0.656250 1.362500 0.656250
v 0.656250 1.425000 0.656250
v 0.656250 1.362500 0.343750
v 0.656250 1.425000 0.343750
v 0.281250 1.362500 0.281250
v 0.281250 1.362500 0.718750
v 0.281250 1.425000 0.718750
v 0.281250 1.425000 0.281250
v 0.718750 1.362500 0.281250
v 0.718750 1.425000 0.281250
v 0.718750 1.362500 0.718750
v 0.718750 1.425000 0.718750
v 0.375000 1.594365 0.625000
v 0.375000 1.531865 0.625000
v 0.375000 1.531865 0.375000
v 0.375000 1.594365 0.375000
v 0.625000 1.531865 0.625000
v 0.625000 1.594365 0.625000
v 0.625000 1.531865 0.375000
v 0.625000 1.594365 0.375000
v 0.312500 1.531865 0.312500
v 0.312500 1.531865 0.687500
v 0.312500 1.594365 0.687500
v 0.312500 1.594365 0.312500
v 0.687500 1.531865 0.312500
v 0.687500 1.594365 0.312500
v 0.687500 1.531865 0.687500
v 0.687500 1.594365 0.687500
v 0.406250 1.750000 0.593750
v 0.406250 1.687500 0.593750
v 0.406250 1.687500 0.406250
v 0.406250 1.750000 0.406250
v 0.593750 1.687500 0.593750
v 0.593750 1.750000 0.593750
v 0.593750 1.687500 0.406250
v 0.593750 1.750000 0.406250
v 0.343750 1.687500 0.343750
v 0.343750 1.687500 0.656250
v 0.343750 1.750000 0.656250
v 0.343750 1.750000 0.343750
v 0.656250 1.687500 0.343750
v 0.656250 1.750000 0.343750
v 0.656250 1.687500 0.656250
v 0.656250 1.750000 0.656250
vt 0.656250 0.906250
vt 0.656250 0.968750
vt 0.906250 0.968750
vt 0.906250 0.906250
vt 0.656250 0.906250
vt 0.656250 0.968750
vt 0.906250 0.968750
vt 0.906250 0.906250
vt 0.656250 0.968750
vt 0.656250 0.906250
vt 0.906250 0.906250
vt 0.906250 0.968750
vt 0.265625 0.734375
vt 0.265625 0.984375
vt 0.015625 0.984375
vt 0.015625 0.734375
vt 0.500000 0.921875
vt 0.593750 0.921875
vt 0.593750 0.968750
vt 0.500000 0.968750
vt 0.093750 0.562500
vt 0.093750 0.656250
vt 0.015625 0.734375
vt 0.015625 0.484375
vt 0.187500 0.656250
vt 0.265625 0.734375
vt 0.187500 0.562500
vt 0.265625 0.484375
vt 0.593750 0.968750
vt 0.500000 0.968750
vt 0.500000 0.921875
vt 0.593750 0.921875
vt 0.500000 0.921875
vt 0.593750 0.921875
vt 0.593750 0.968750
vt 0.500000 0.968750
vt 0.500000 0.921875
vt 0.593750 0.921875
vt 0.593750 0.968750
vt 0.500000 0.968750
vt 0.578125 0.703125
vt 0.578125 0.734375
vt 0.546875 0.765625
vt 0.546875 0.671875
vt 0.609375 0.734375
vt 0.640625 0.765625
vt 0.609375 0.703125
vt 0.640625 0.671875
vt 0.468750 0.718750
vt 0.500000 0.718750
vt 0.500000 0.765625
vt 0.468750 0.765625
vt 0.609375 0.734375
vt 0.609375 0.703125
vt 0.640625 0.671875
vt 0.640625 0.765625
vt 0.468750 0.718750
vt 0.500000 0.718750
vt 0.500000 0.765625
vt 0.468750 0.765625
vt 0.468750 0.718750
vt 0.500000 0.718750
vt 0.500000 0.765625
vt 0.468750 0.765625
vt 0.468750 0.718750
vt 0.500000 0.718750
vt 0.500000 0.765625
vt 0.468750 0.765625
vt 0.328125 0.593750
vt 0.328125 0.687500
vt 0.312500 0.703125
vt 0.312500 0.578125
vt 0.578125 0.703125
vt 0.578125 0.734375
vt 0.546875 0.765625
vt 0.546875 0.671875
vt 0.656250 0.828125
vt 0.781250 0.828125
vt 0.781250 0.875000
vt 0.656250 0.875000
vt 0.421875 0.687500
vt 0.421875 0.593750
vt 0.437500 0.578125
vt 0.437500 0.703125
vt 0.281250 0.968750
vt 0.281250 0.781250
vt 0.312500 0.812500
vt 0.312500 0.937500
vt 0.781250 0.875000
vt 0.656250 0.875000
vt 0.656250 0.828125
vt 0.781250 0.828125
vt 0.656250 0.828125
vt 0.781250 0.828125
vt 0.781250 0.875000
vt 0.656250 0.875000
vt 0.781250 0.875000
vt 0.656250 0.875000
vt 0.656250 0.828125
vt 0.781250 0.828125
vt 0.015625 0.265625
vt 0.109375 0.265625
vt 0.078125 0.468750
vt 0.046875 0.468750
vt 0.468750 0.781250
vt 0.437500 0.812500
vt 0.468750 0.968750
vt 0.437500 0.937500
vt 0.515625 0.820312
vt 0.546875 0.820312
vt 0.554688 0.843750
vt 0.507812 0.843750
vt 0.015625 0.265625
vt 0.109375 0.265625
vt 0.078125 0.468750
vt 0.046875 0.468750
vt 0.015625 0.265625
vt 0.109375 0.265625
vt 0.078125 0.468750
vt 0.046875 0.468750
vt 0.015625 0.265625
vt 0.109375 0.265625
vt 0.078125 0.468750
vt 0.046875 0.468750
vt 0.570312 0.843750
vt 0.617188 0.843750
vt 0.601562 0.859375
vt 0.585938 0.859375
vt 0.546875 0.867188
vt 0.515625 0.867188
vt 0.507812 0.843750
vt 0.554688 0.843750
vt 0.515625 0.820312
vt 0.546875 0.820312
vt 0.554688 0.843750
vt 0.546875 0.867188
vt 0.515625 0.867188
vt 0.507812 0.843750
vt 0.562500 0.890625
vt 0.562500 0.875000
vt 0.578125 0.875000
vt 0.578125 0.890625
vt 0.617188 0.843750
vt 0.570312 0.843750
vt 0.585938 0.828125
vt 0.601562 0.828125
vt 0.570312 0.843750
vt 0.601562 0.859375
vt 0.585938 0.859375
vt 0.617188 0.843750
vt 0.585938 0.828125
vt 0.601562 0.828125
vt 0.265625 0.140625
vt 0.265625 0.125000
vt 0.390625 0.125000
vt 0.390625 0.140625
vt 0.265625 0.140625
vt 0.265625 0.125000
vt 0.390625 0.125000
vt 0.390625 0.140625
vt 0.390625 0.125000
vt 0.390625 0.140625
vt 0.265625 0.140625
vt 0.265625 0.125000
vt 0.390625 0.125000
vt 0.390625 0.140625
vt 0.265625 0.140625
vt 0.265625 0.125000
vt 0.375000 0.093750
vt 0.375000 0.109375
vt 0.281250 0.109375
vt 0.281250 0.093750
vt 0.281250 0.109375
vt 0.281250 0.093750
vt 0.375000 0.093750
vt 0.375000 0.109375
vt 0.140625 0.031250
vt 0.140625 0.125000
vt 0.125000 0.140625
vt 0.125000 0.015625
vt 0.140625 0.125000
vt 0.234375 0.125000
vt 0.250000 0.140625
vt 0.125000 0.140625
vt 0.234375 0.031250
vt 0.250000 0.015625
vt 0.234375 0.031250
vt 0.250000 0.015625
vt 0.234375 0.125000
vt 0.250000 0.140625
vt 0.140625 0.031250
vt 0.125000 0.015625
vt 0.281250 0.109375
vt 0.281250 0.093750
vt 0.375000 0.093750
vt 0.375000 0.109375
vt 0.375000 0.093750
vt 0.375000 0.109375
vt 0.281250 0.109375
vt 0.281250 0.093750
vt 0.265625 0.265625
vt 0.265625 0.250000
vt 0.375000 0.250000
vt 0.375000 0.265625
vt 0.265625 0.265625
vt 0.265625 0.250000
vt 0.375000 0.250000
vt 0.375000 0.265625
vt 0.375000 0.250000
vt 0.375000 0.265625
vt 0.265625 0.265625
vt 0.265625 0.250000
vt 0.375000 0.250000
vt 0.375000 0.265625
vt 0.265625 0.265625
vt 0.265625 0.250000
vt 0.359375 0.218750
vt 0.359375 0.234375
vt 0.281250 0.234375
vt 0.281250 0.218750
vt 0.281250 0.234375
vt 0.281250 0.218750
vt 0.359375 0.218750
vt 0.359375 0.234375
vt 0.140625 0.171875
vt 0.140625 0.250000
vt 0.125000 0.265625
vt 0.125000 0.156250
vt 0.140625 0.171875
vt 0.140625 0.250000
vt 0.125000 0.265625
vt 0.125000 0.156250
vt 0.218750 0.171875
vt 0.234375 0.156250
vt 0.218750 0.250000
vt 0.234375 0.265625
vt 0.218750 0.250000
vt 0.234375 0.265625
vt 0.218750 0.171875
vt 0.234375 0.156250
vt 0.281250 0.234375
vt 0.281250 0.218750
vt 0.359375 0.218750
vt 0.359375 0.234375
vt 0.359375 0.218750
vt 0.359375 0.234375
vt 0.281250 0.234375
vt 0.281250 0.218750
vt 0.265625 0.375000
vt 0.265625 0.359375
vt 0.359375 0.359375
vt 0.359375 0.375000
vt 0.265625 0.375000
vt 0.265625 0.359375
vt 0.359375 0.359375
vt 0.359375 0.375000
vt 0.359375 0.359375
vt 0.359375 0.375000
vt 0.265625 0.375000
vt 0.265625 0.359375
vt 0.359375 0.359375
vt 0.359375 0.375000
vt 0.265625 0.375000
vt 0.265625 0.359375
vt 0.343750 0.328125
vt 0.343750 0.343750
vt 0.281250 0.343750
vt 0.281250 0.328125
vt 0.281250 0.343750
vt 0.281250 0.328125
vt 0.343750 0.328125
vt 0.343750 0.343750
vt 0.140625 0.296875
vt 0.140625 0.359375
vt 0.125000 0.375000
vt 0.125000 0.281250
vt 0.140625 0.296875
vt 0.140625 0.359375
vt 0.125000 0.375000
vt 0.125000 0.281250
vt 0.203125 0.296875
vt 0.218750 0.281250
vt 0.203125 0.359375
vt 0.218750 0.375000
vt 0.203125 0.359375
vt 0.218750 0.375000
vt 0.203125 0.296875
vt 0.218750 0.281250
vt 0.281250 0.343750
vt 0.281250 0.328125
vt 0.343750 0.328125
vt 0.343750 0.343750
vt 0.343750 0.328125
vt 0.343750 0.343750
vt 0.281250 0.343750
vt 0.281250 0.328125
vt 0.265625 0.468750
vt 0.265625 0.453125
vt 0.343750 0.453125
vt 0.343750 0.468750
vt 0.265625 0.468750
vt 0.265625 0.453125
vt 0.343750 0.453125
vt 0.343750 0.468750
vt 0.343750 0.453125
vt 0.343750 0.468750
vt 0.265625 0.468750
vt 0.265625 0.453125
vt 0.343750 0.453125
vt 0.343750 0.468750
vt 0.265625 0.468750
vt 0.265625 0.453125
vt 0.328125 0.437500
vt 0.328125 0.421875
vt 0.281250 0.421875
vt 0.281250 0.437500
vt 0.328125 0.421875
vt 0.328125 0.437500
vt 0.140625 0.406250
vt 0.140625 0.453125
vt 0.125000 0.468750
vt 0.125000 0.390625
vt 0.140625 0.406250
vt 0.140625 0.453125
vt 0.125000 0.468750
vt 0.125000 0.390625
vt 0.187500 0.406250
vt 0.203125 0.390625
vt 0.187500 0.453125
vt 0.203125 0.468750
vt 0.187500 0.453125
vt 0.203125 0.468750
vt 0.187500 0.406250
vt 0.203125 0.390625
vt 0.281250 0.437500
vt 0.281250 0.421875
vt 0.328125 0.421875
vt 0.328125 0.437500
vt 0.328125 0.421875
vt 0.328125 0.437500
vt 0.281250 0.437500
vt 0.281250 0.421875
vn -1.0000 0.0000 0.0000
vn 0.0000 0.0000 -1.0000
vn 1.0000 0.0000 0.0000
vn 0.0000 0.0000 1.0000
vn 0.0000 -1.0000 0.0000
vn -0.1674 0.9859 0.0000
vn 0.0000 0.9859 -0.1674
vn 0.1674 0.9859 0.0000
vn 0.0000 0.9859 0.1674
vn -0.3320 0.9433 0.0000
vn 0.0000 0.9433 -0.3320
vn 0.3320 0.9433 0.0000
vn 0.0000 0.9433 0.3320
vn 0.6767 -0.7363 0.0000
vn 0.0000 -0.7894 0.6139
vn -0.6767 -0.7363 0.0000
vn 0.0000 -0.7363 0.6767
vn 0.0000 -0.7363 -0.6767
vn 0.0000 -0.7894 -0.6139
vn 0.6139 -0.7894 0.0000
vn -0.6139 -0.7894 0.0000
vn -0.7960 0.6053 0.0000
vn 0.0000 0.1554 0.9879
vn 0.0000 0.6053 0.7960
vn 0.0000 0.6053 -0.7960
vn 0.7960 0.6053 0.0000
vn 0.9487 -0.3162 0.0000
vn 0.0000 0.1554 -0.9879
vn 0.9879 0.1554 0.0000
vn -0.9879 0.1554 0.0000
vn 0.0000 0.8944 0.4472
vn -0.9487 -0.3162 0.0000
vn 0.0000 -0.3162 0.9487
vn 0.0000 -0.3162 -0.9487
vn 0.0000 1.0000 0.0000
vn 0.0000 0.8944 -0.4472
vn 0.4472 0.8944 0.0000
vn -0.4472 0.8944 0.0000
usemtl Material
f 1/1/1 9/2/1 10/3/1 3/4/1
f 3/5/2 10/6/2 11/7/2 7/8/2
f 7/8/3 11/7/3 12/9/3 5/10/3
f 5/11/4 12/12/4 9/2/4 1/1/4
f 3/13/5 7/14/5 5/15/5 1/16/5
f 2/17/4 6/18/4 20/19/4 17/20/4
f 2/21/6 4/22/6 10/23/6 9/24/6
f 4/22/7 8/25/7 11/26/7 10/23/7
f 8/25/8 6/27/8 12/28/8 11/26/8
f 6/27/9 2/21/9 9/24/9 12/28/9
f 8/29/2 4/30/2 18/31/2 19/32/2
f 6/33/3 8/34/3 19/35/3 20/36/3
f 4/37/1 2/38/1 17/39/1 18/40/1
f 13/41/10 14/42/10 18/43/10 17/44/10
f 14/42/11 15/45/11 19/46/11 18/43/11
f 15/45/12 16/47/12 20/48/12 19/46/12
f 16/47/13 13/41/13 17/44/13 20/48/13
f 16/49/3 15/50/3 23/51/3 24/52/3
f 24/53/14 23/54/14 27/55/14 28/56/14
f 14/57/1 13/58/1 21/59/1 22/60/1
f 13/61/4 16/62/4 24/63/4 21/64/4
f 15/65/2 14/66/2 22/67/2 23/68/2
f 25/69/15 28/70/15 32/71/15 29/72/15
f 22/73/16 21/74/16 25/75/16 26/76/16
f 21/74/17 24/53/17 28/56/17 25/75/17
f 23/54/18 22/73/18 26/76/18 27/55/18
f 32/77/3 31/78/3 35/79/3 36/80/3
f 27/81/19 26/82/19 30/83/19 31/84/19
f 28/70/20 27/81/20 31/84/20 32/71/20
f 26/82/21 25/69/21 29/72/21 30/83/21
f 34/85/22 33/86/22 37/87/22 38/88/22
f 30/89/1 29/90/1 33/91/1 34/92/1
f 29/93/4 32/94/4 36/95/4 33/96/4
f 31/97/2 30/98/2 34/99/2 35/100/2
f 37/101/23 40/102/23 44/103/23 41/104/23
f 33/86/24 36/105/24 40/106/24 37/87/24
f 35/107/25 34/85/25 38/88/25 39/108/25
f 36/105/26 35/107/26 39/108/26 40/106/26
f 44/109/27 43/110/27 47/111/27 48/112/27
f 39/113/28 38/114/28 42/115/28 43/116/28
f 40/117/29 39/118/29 43/119/29 44/120/29
f 38/121/30 37/122/30 41/123/30 42/124/30
f 45/125/31 48/126/31 52/127/31 49/128/31
f 42/129/32 41/130/32 45/131/32 46/132/32
f 41/133/33 44/134/33 48/135/33 45/131/33
f 43/136/34 42/137/34 46/138/34 47/111/34
f 50/139/35 49/140/35 52/141/35 51/142/35
f 47/143/36 46/144/36 50/145/36 51/146/36
f 48/147/37 47/143/37 51/148/37 52/149/37
f 46/150/38 45/125/38 49/151/38 50/152/38
f 61/153/2 64/154/2 66/155/2 65/156/2
f 62/157/1 63/158/1 64/159/1 61/160/1
f 65/161/3 66/162/3 68/163/3 67/164/3
f 67/165/4 68/166/4 63/167/4 62/168/4
f 55/169/3 56/170/3 53/171/3 54/172/3
f 54/173/2 53/174/2 58/175/2 57/176/2
f 55/177/5 54/178/5 62/179/5 61/180/5
f 53/181/35 56/182/35 64/183/35 63/184/35
f 59/185/5 55/177/5 61/180/5 65/186/5
f 56/182/35 60/187/35 66/188/35 64/183/35
f 57/189/5 59/185/5 65/186/5 67/190/5
f 60/187/35 58/191/35 68/192/35 66/188/35
f 54/178/5 57/189/5 67/190/5 62/179/5
f 58/191/35 53/181/35 63/184/35 68/192/35
f 57/193/1 58/194/1 60/195/1 59/196/1
f 59/197/4 60/198/4 56/199/4 55/200/4
f 77/201/2 80/202/2 82/203/2 81/204/2
f 78/205/1 79/206/1 80/207/1 77/208/1
f 81/209/3 82/210/3 84/211/3 83/212/3
f 83/213/4 84/214/4 79/215/4 78/216/4
f 71/217/3 72/218/3 69/219/3 70/220/3
f 70/221/2 69/222/2 74/223/2 73/224/2
f 71/225/5 70/226/5 78/227/5 77/228/5
f 69/229/35 72/230/35 80/231/35 79/232/35
f 75/233/5 71/225/5 77/228/5 81/234/5
f 72/230/35 76/235/35 82/236/35 80/231/35
f 73/237/5 75/233/5 81/234/5 83/238/5
f 76/235/35 74/239/35 84/240/35 82/236/35
f 70/226/5 73/237/5 83/238/5 78/227/5
f 74/239/35 69/229/35 79/232/35 84/240/35
f 73/241/1 74/242/1 76/243/1 75/244/1
f 75/245/4 76/246/4 72/247/4 71/248/4
f 93/249/2 96/250/2 98/251/2 97/252/2
f 94/253/1 95/254/1 96/255/1 93/256/1
f 97/257/3 98/258/3 100/259/3 99/260/3
f 99/261/4 100/262/4 95/263/4 94/264/4
f 87/265/3 88/266/3 85/267/3 86/268/3
f 86/269/2 85/270/2 90/271/2 89/272/2
f 87/273/5 86/274/5 94/275/5 93/276/5
f 85/277/35 88/278/35 96/279/35 95/280/35
f 91/281/5 87/273/5 93/276/5 97/282/5
f 88/278/35 92/283/35 98/284/35 96/279/35
f 89/285/5 91/281/5 97/282/5 99/286/5
f 92/283/35 90/287/35 100/288/35 98/284/35
f 86/274/5 89/285/5 99/286/5 94/275/5
f 90/287/35 85/277/35 95/280/35 100/288/35
f 89/289/1 90/290/1 92/291/1 91/292/1
f 91/293/4 92/294/4 88/295/4 87/296/4
f 109/297/2 112/298/2 114/299/2 113/300/2
f 110/301/1 111/302/1 112/303/1 109/304/1
f 113/305/3 114/306/3 116/307/3 115/308/3
f 115/309/4 116/310/4 111/311/4 110/312/4
f 103/313/3 104/314/3 101/315/3 102/316/3
f 102/316/2 101/315/2 106/317/2 105/318/2
f 103/319/5 102/320/5 110/321/5 109/322/5
f 101/323/35 104/324/35 112/325/35 111/326/35
f 107/327/5 103/319/5 109/322/5 113/328/5
f 104/324/35 108/329/35 114/330/35 112/325/35
f 105/331/5 107/327/5 113/328/5 115/332/5
f 108/329/35 106/333/35 116/334/35 114/330/35
f 102/320/5 105/331/5 115/332/5 110/321/5
f 106/333/35 101/323/35 111/326/35 116/334/35
f 105/335/1 106/336/1 108/337/1 107/338/1
f 107/339/4 108/340/4 104/341/4 103/342/4
