# Blender v2.79 (sub 1) OBJ File: 'solar_panel.blend'
# www.blender.org
mtllib solar_panel.mtl
o Cube
v 0.000000 0.000000 1.000000
v 0.326668 0.303075 0.673332
v 0.000000 0.000000 0.000000
v 0.326668 0.303075 0.326668
v 1.000000 0.000000 1.000000
v 0.673332 0.303075 0.673332
v 1.000000 0.000000 0.000000
v 0.673332 0.303075 0.326668
v 0.000000 0.250000 1.000000
v 0.000000 0.250000 0.000000
v 1.000000 0.250000 0.000000
v 1.000000 0.250000 1.000000
v 0.423720 0.531566 0.576280
v 0.423720 0.531566 0.423720
v 0.576280 0.531566 0.423720
v 0.576280 0.531566 0.576280
v 0.326668 0.487569 0.673332
v 0.326668 0.487569 0.326668
v 0.673332 0.487569 0.326668
v 0.673332 0.487569 0.673332
v 0.423720 0.852084 0.576280
v 0.423720 0.852084 0.423720
v 0.576280 0.852084 0.423720
v 0.576280 0.852084 0.576280
v 0.366556 0.932062 0.547346
v 0.366556 0.932062 0.452654
v 0.633444 0.932062 0.452654
v 0.633444 0.932062 0.547346
v 0.366556 4.113285 0.547346
v 0.366556 4.113285 0.452654
v 0.633444 4.113285 0.452654
v 0.633444 4.113285 0.547346
v 1.000000 1.176594 0.452654
v 1.000000 1.176594 0.547346
v 1.000000 3.683399 0.452654
v 1.000000 3.683399 0.547346
v 0.000000 1.176594 0.547346
v 0.000000 1.176594 0.452654
v 0.000000 3.683399 0.547346
v 0.000000 3.683399 0.452654
v 0.673628 0.917522 0.613541
v 0.326372 0.917522 0.613541
v 0.326372 0.917522 0.386459
v 0.673628 0.917522 0.386459
v 0.355495 0.881596 0.629894
v 0.644505 0.881596 0.370106
v 0.644505 0.881596 0.629894
v 0.355495 0.881596 0.370106
vt 0.343750 0.812500
vt 0.625000 0.875000
vt 0.343750 0.875000
vt 0.343750 0.875000
vt 0.625000 0.812500
vt 0.343750 0.812500
vt 0.625000 0.875000
vt 0.343750 0.812500
vt 0.625000 0.875000
vt 0.343750 0.812500
vt 0.625000 0.812500
vt 0.625000 0.781250
vt 0.343750 0.500000
vt 0.625000 0.500000
vt 0.750000 0.593750
vt 0.656250 0.656250
vt 0.656250 0.593750
vt 0.437500 0.375000
vt 0.343750 0.187500
vt 0.437500 0.281250
vt 0.531250 0.375000
vt 0.343750 0.468750
vt 0.531250 0.281250
vt 0.625000 0.468750
vt 0.625000 0.187500
vt 0.718750 0.687500
vt 0.687500 0.750000
vt 0.687500 0.687500
vt 0.750000 0.593750
vt 0.656250 0.656250
vt 0.656250 0.593750
vt 0.750000 0.593750
vt 0.656250 0.656250
vt 0.656250 0.593750
vt 0.750000 0.593750
vt 0.656250 0.656250
vt 0.656250 0.593750
vt 0.687500 0.687500
vt 0.750000 0.656250
vt 0.718750 0.687500
vt 0.687500 0.687500
vt 0.750000 0.656250
vt 0.718750 0.687500
vt 0.750000 0.656250
vt 0.687500 0.687500
vt 0.750000 0.656250
vt 0.718750 0.687500
vt 0.718750 0.812500
vt 0.687500 0.843750
vt 0.687500 0.812500
vt 0.687500 0.750000
vt 0.687500 0.750000
vt 0.687500 0.750000
vt 0.593750 0.906250
vt 0.750000 0.937500
vt 0.593750 0.937500
vt 0.718750 0.812500
vt 0.687500 0.843750
vt 0.687500 0.812500
vt 0.718750 0.812500
vt 0.687500 0.843750
vt 0.687500 0.812500
vt 0.718750 0.812500
vt 0.687500 0.843750
vt 0.687500 0.812500
vt 0.500000 0.937500
vt 0.343750 0.906250
vt 0.500000 0.906250
vt 0.218750 0.093750
vt 0.125000 0.968750
vt 0.125000 0.093750
vt 0.218750 0.093750
vt 0.125000 0.968750
vt 0.125000 0.093750
vt 0.812500 0.281250
vt 0.781250 0.968750
vt 0.781250 0.281250
vt 0.812500 0.125000
vt 0.781250 0.125000
vt 0.312500 0.843750
vt 0.218750 0.968750
vt 0.031250 0.843750
vt 0.031250 0.156250
vt 0.812500 0.281250
vt 0.781250 0.968750
vt 0.781250 0.281250
vt 0.312500 0.843750
vt 0.218750 0.968750
vt 0.812500 0.125000
vt 0.781250 0.125000
vt 0.031250 0.843750
vt 0.031250 0.156250
vt 0.687500 0.781250
vt 0.718750 0.781250
vt 0.687500 0.781250
vt 0.718750 0.781250
vt 0.687500 0.781250
vt 0.718750 0.781250
vt 0.687500 0.781250
vt 0.718750 0.750000
vt 0.718750 0.750000
vt 0.718750 0.750000
vt 0.718750 0.750000
vt 0.625000 0.812500
vt 0.343750 0.875000
vt 0.343750 0.875000
vt 0.343750 0.781250
vt 0.718750 0.843750
vt 0.750000 0.906250
vt 0.718750 0.843750
vt 0.718750 0.843750
vt 0.718750 0.843750
vt 0.343750 0.937500
vt 0.812500 0.968750
vt 0.312500 0.156250
vt 0.812500 0.968750
vt 0.312500 0.156250
vt 0.718750 0.781250
vn -1.0000 0.0000 0.0000
vn 0.0000 0.0000 -1.0000
vn 1.0000 0.0000 0.0000
vn 0.0000 0.0000 1.0000
vn 0.0000 -1.0000 0.0000
vn -0.1604 0.9871 0.0000
vn 0.0000 0.9871 -0.1604
vn 0.1604 0.9871 0.0000
vn 0.0000 0.9871 0.1604
vn -0.4129 0.9108 0.0000
vn 0.0000 0.9108 -0.4129
vn 0.4129 0.9108 0.0000
vn 0.0000 0.9108 0.4129
vn 0.0000 0.9767 0.2145
vn 0.7609 0.6488 0.0000
vn 0.0000 0.9767 -0.2145
vn 0.3403 0.9403 0.0000
vn -0.3403 0.9403 0.0000
vn 0.0000 1.0000 0.0000
vn -0.7609 0.6488 0.0000
vn 0.5550 -0.8319 0.0000
vn -0.5550 -0.8319 0.0000
vn -0.7768 -0.6297 0.0000
vn 0.7768 -0.6297 0.0000
vn 0.0000 0.4143 -0.9101
vn 0.0000 0.4143 0.9101
vn 0.0000 -0.8761 0.4822
vn 0.0000 -0.8761 -0.4822
vn 0.3970 -0.9178 0.0000
vn -0.3970 -0.9178 0.0000
usemtl Material
f 9/1/1 3/2/1 1/3/1
f 10/4/2 7/5/2 3/6/2
f 11/7/3 5/8/3 7/5/3
f 12/9/4 1/10/4 5/11/4
f 7/12/5 1/13/5 3/14/5
f 6/15/4 17/16/4 2/17/4
f 4/18/6 9/19/6 2/20/6
f 8/21/7 10/22/7 4/18/7
f 6/23/8 11/24/8 8/21/8
f 2/20/9 12/25/9 6/23/9
f 15/26/3 24/27/3 16/28/3
f 4/29/2 19/30/2 8/31/2
f 8/32/3 20/33/3 6/34/3
f 2/35/1 18/36/1 4/37/1
f 14/38/10 17/39/10 13/40/10
f 15/41/11 18/42/11 14/43/11
f 16/28/12 19/44/12 15/26/12
f 13/45/13 20/46/13 16/47/13
f 41/48/14 25/49/14 42/50/14
f 13/40/1 22/51/1 14/38/1
f 16/47/4 21/52/4 13/45/4
f 14/43/2 23/53/2 15/41/2
f 32/54/15 35/55/15 31/56/15
f 43/57/16 27/58/16 44/59/16
f 44/60/17 28/61/17 41/62/17
f 42/63/18 26/64/18 43/65/18
f 30/66/19 32/54/19 31/56/19
f 30/66/20 39/67/20 29/68/20
f 28/69/4 29/70/4 25/71/4
f 26/72/2 31/73/2 27/74/2
f 33/75/3 36/76/3 34/77/3
f 27/78/21 34/77/21 28/79/21
f 28/69/4 36/80/4 32/81/4
f 27/74/2 35/82/2 33/83/2
f 37/84/1 40/85/1 38/86/1
f 26/72/2 40/87/2 30/88/2
f 25/89/22 38/86/22 26/90/22
f 25/71/4 39/91/4 37/92/4
f 48/93/23 42/63/23 43/65/23
f 46/94/24 41/62/24 47/95/24
f 48/96/25 44/59/25 46/97/25
f 47/98/26 42/50/26 45/99/26
f 24/100/27 45/99/27 21/52/27
f 22/101/28 46/97/28 23/53/28
f 23/102/29 47/95/29 24/27/29
f 21/103/30 48/93/30 22/51/30
f 9/1/1 10/104/1 3/2/1
f 10/4/2 11/7/2 7/5/2
f 11/7/3 12/105/3 5/8/3
f 12/9/4 9/106/4 1/10/4
f 7/12/5 5/107/5 1/13/5
f 6/15/4 20/46/4 17/16/4
f 4/18/6 10/22/6 9/19/6
f 8/21/7 11/24/7 10/22/7
f 6/23/8 12/25/8 11/24/8
f 2/20/9 9/19/9 12/25/9
f 15/26/3 23/102/3 24/27/3
f 4/29/2 18/42/2 19/30/2
f 8/32/3 19/44/3 20/33/3
f 2/35/1 17/39/1 18/36/1
f 14/38/10 18/36/10 17/39/10
f 15/41/11 19/30/11 18/42/11
f 16/28/12 20/33/12 19/44/12
f 13/45/13 17/16/13 20/46/13
f 41/48/14 28/108/14 25/49/14
f 13/40/1 21/103/1 22/51/1
f 16/47/4 24/100/4 21/52/4
f 14/43/2 22/101/2 23/53/2
f 32/54/15 36/109/15 35/55/15
f 43/57/16 26/110/16 27/58/16
f 44/60/17 27/111/17 28/61/17
f 42/63/18 25/112/18 26/64/18
f 30/66/19 29/68/19 32/54/19
f 30/66/20 40/113/20 39/67/20
f 28/69/4 32/81/4 29/70/4
f 26/72/2 30/88/2 31/73/2
f 33/75/3 35/114/3 36/76/3
f 27/78/21 33/75/21 34/77/21
f 28/69/4 34/115/4 36/80/4
f 27/74/2 31/73/2 35/82/2
f 37/84/1 39/116/1 40/85/1
f 26/72/2 38/117/2 40/87/2
f 25/89/22 37/84/22 38/86/22
f 25/71/4 29/70/4 39/91/4
f 48/93/23 45/118/23 42/63/23
f 46/94/24 44/60/24 41/62/24
f 48/96/25 43/57/25 44/59/25
f 47/98/26 41/48/26 42/50/26
f 24/100/27 47/98/27 45/99/27
f 22/101/28 48/96/28 46/97/28
f 23/102/29 46/94/29 47/95/29
f 21/103/30 45/118/30 48/93/30
