# Blender v2.79 (sub 1) OBJ File: 'solar_panel.blend'
# www.blender.org
mtllib solar_panel.mtl
o Cube
v 0.000000 0.000000 1.000000
v 0.325865 0.300000 0.677701
v 0.000000 0.000000 0.000000
v 0.326936 0.300000 0.325212
v 1.000000 0.000000 1.000000
v 0.673599 0.300000 0.671875
v 1.000000 0.000000 0.000000
v 0.673599 0.300000 0.325212
v 0.000000 0.250000 1.000000
v 0.000000 0.250000 0.000000
v 1.000000 0.250000 0.000000
v 1.000000 0.250000 1.000000
v 0.423720 0.525000 0.576280
v 0.423720 0.525000 0.423720
v 0.576280 0.525000 0.423720
v 0.576280 0.525000 0.576280
v 0.326668 0.500000 0.673332
v 0.326668 0.500000 0.326668
v 0.673332 0.500000 0.326668
v 0.673332 0.500000 0.673332
v 0.423720 0.663110 0.576280
v 0.423720 0.663110 0.423720
v 0.576280 0.663110 0.423720
v 0.576280 0.663110 0.576280
v 0.366556 0.812500 0.547346
v 0.366556 0.812500 0.452654
v 0.633444 0.812500 0.452654
v 0.633444 0.812500 0.547346
v 0.366556 3.000000 0.547346
v 0.366556 3.000000 0.452654
v 0.633444 3.000000 0.452654
v 0.633444 3.000000 0.547346
v 1.000000 1.000000 0.452654
v 1.000000 1.000000 0.547346
v 1.000000 2.750000 0.452654
v 1.000000 2.750000 0.547346
v 0.000000 1.000000 0.547346
v 0.000000 1.000000 0.452654
v 0.000000 2.750000 0.547346
v 0.000000 2.750000 0.452654
v 0.673628 0.728548 0.613541
v 0.326372 0.728548 0.613541
v 0.326372 0.728548 0.386459
v 0.673628 0.728548 0.386459
v 0.355495 0.692622 0.629894
v 0.644505 0.692622 0.370106
v 0.644505 0.692622 0.629894
v 0.355495 0.692622 0.370106
vt 0.375000 0.875000
vt 0.375000 0.812500
vt 0.625000 0.812500
vt 0.625000 0.875000
vt 0.375000 0.812500
vt 0.375000 0.875000
vt 0.625000 0.875000
vt 0.625000 0.812500
vt 0.375000 0.875000
vt 0.375000 0.812500
vt 0.625000 0.812500
vt 0.625000 0.875000
vt 0.375000 0.875000
vt 0.375000 0.812500
vt 0.625000 0.515625
vt 0.625000 0.765625
vt 0.375000 0.765625
vt 0.375000 0.515625
vt 0.781250 0.625000
vt 0.859375 0.625000
vt 0.859375 0.687500
vt 0.781250 0.687500
vt 0.453125 0.281250
vt 0.453125 0.375000
vt 0.375000 0.453125
vt 0.375000 0.203125
vt 0.546875 0.375000
vt 0.625000 0.453125
vt 0.546875 0.281250
vt 0.625000 0.203125
vt 0.796875 0.718750
vt 0.843750 0.718750
vt 0.843750 0.765625
vt 0.796875 0.765625
vt 0.781250 0.625000
vt 0.859375 0.625000
vt 0.859375 0.687500
vt 0.781250 0.687500
vt 0.781250 0.625000
vt 0.859375 0.625000
vt 0.859375 0.687500
vt 0.781250 0.687500
vt 0.781250 0.625000
vt 0.859375 0.625000
vt 0.859375 0.687500
vt 0.781250 0.687500
vt 0.843750 0.718750
vt 0.796875 0.718750
vt 0.843750 0.718750
vt 0.796875 0.718750
vt 0.843750 0.718750
vt 0.796875 0.718750
vt 0.796875 0.828125
vt 0.843750 0.828125
vt 0.843750 0.859375
vt 0.796875 0.859375
vt 0.843750 0.765625
vt 0.796875 0.765625
vt 0.843750 0.765625
vt 0.796875 0.765625
vt 0.843750 0.765625
vt 0.796875 0.765625
vt 0.531250 0.968750
vt 0.531250 0.937500
vt 0.625000 0.937500
vt 0.625000 0.968750
vt 0.796875 0.828125
vt 0.843750 0.828125
vt 0.843750 0.859375
vt 0.796875 0.859375
vt 0.796875 0.828125
vt 0.843750 0.828125
vt 0.843750 0.859375
vt 0.796875 0.859375
vt 0.796875 0.828125
vt 0.843750 0.828125
vt 0.843750 0.859375
vt 0.796875 0.859375
vt 0.468750 0.968750
vt 0.468750 0.937500
vt 0.375000 0.968750
vt 0.375000 0.937500
vt 0.156250 0.390625
vt 0.218750 0.390625
vt 0.218750 0.937500
vt 0.156250 0.937500
vt 0.156250 0.390625
vt 0.218750 0.390625
vt 0.218750 0.937500
vt 0.156250 0.937500
vt 0.703125 0.281250
vt 0.734375 0.281250
vt 0.734375 0.781250
vt 0.703125 0.781250
vt 0.703125 0.187500
vt 0.734375 0.187500
vt 0.312500 0.437500
vt 0.312500 0.875000
vt 0.062500 0.875000
vt 0.062500 0.437500
vt 0.703125 0.281250
vt 0.734375 0.281250
vt 0.734375 0.781250
vt 0.703125 0.781250
vt 0.312500 0.437500
vt 0.312500 0.875000
vt 0.703125 0.187500
vt 0.734375 0.187500
vt 0.062500 0.875000
vt 0.062500 0.437500
vt 0.796875 0.796875
vt 0.843750 0.796875
vt 0.796875 0.796875
vt 0.843750 0.796875
vt 0.796875 0.796875
vt 0.843750 0.796875
vt 0.796875 0.796875
vt 0.843750 0.796875
vn -1.0000 0.0000 0.0000
vn 0.0000 0.0000 -1.0000
vn 1.0000 0.0000 0.0000
vn 0.0000 0.0000 1.0000
vn 0.0000 -1.0000 0.0000
vn 0.0084 0.0073 0.9999
vn -0.1514 0.9885 -0.0001
vn 0.0000 0.9884 -0.1520
vn 0.1514 0.9885 0.0000
vn 0.0007 0.9884 0.1520
vn 0.0000 0.0073 -1.0000
vn 1.0000 0.0013 0.0000
vn -1.0000 0.0013 -0.0015
vn -0.2495 0.9684 0.0000
vn 0.0000 0.9684 -0.2495
vn 0.2495 0.9684 0.0000
vn 0.0000 0.9684 0.2495
vn 0.0000 0.6192 0.7853
vn 0.5635 0.8261 0.0000
vn 0.0000 0.6192 -0.7853
vn 0.9020 0.4317 0.0000
vn -0.9020 0.4317 0.0000
vn 0.0000 1.0000 0.0000
vn -0.5635 0.8261 0.0000
vn 0.4554 -0.8903 0.0000
vn -0.4554 -0.8903 0.0000
vn -0.7768 -0.6297 0.0000
vn 0.7768 -0.6297 0.0000
vn 0.0000 0.4143 -0.9101
vn 0.0000 0.4143 0.9101
vn 0.0000 -0.8761 0.4822
vn 0.0000 -0.8761 -0.4822
vn 0.3970 -0.9178 0.0000
vn -0.3970 -0.9178 0.0000
usemtl Material
f 1/1/1 9/2/1 10/3/1 3/4/1
f 3/5/2 10/6/2 11/7/2 7/8/2
f 7/8/3 11/7/3 12/9/3 5/10/3
f 5/11/4 12/12/4 9/13/4 1/14/4
f 3/15/5 7/16/5 5/17/5 1/18/5
f 2/19/6 6/20/6 20/21/6 17/22/6
f 2/23/7 4/24/7 10/25/7 9/26/7
f 4/24/8 8/27/8 11/28/8 10/25/8
f 8/27/9 6/29/9 12/30/9 11/28/9
f 6/29/10 2/23/10 9/26/10 12/30/10
f 16/31/3 15/32/3 23/33/3 24/34/3
f 8/35/11 4/36/11 18/37/11 19/38/11
f 6/39/12 8/40/12 19/41/12 20/42/12
f 4/43/13 2/44/13 17/45/13 18/46/13
f 13/47/14 14/48/14 18/46/14 17/45/14
f 14/49/15 15/50/15 19/38/15 18/37/15
f 15/32/16 16/31/16 20/42/16 19/41/16
f 16/51/17 13/52/17 17/22/17 20/21/17
f 42/53/18 41/54/18 28/55/18 25/56/18
f 14/48/1 13/47/1 21/57/1 22/58/1
f 13/52/4 16/51/4 24/59/4 21/60/4
f 15/50/2 14/49/2 22/61/2 23/62/2
f 31/63/19 32/64/19 36/65/19 35/66/19
f 44/67/20 43/68/20 26/69/20 27/70/20
f 41/71/21 44/72/21 27/73/21 28/74/21
f 43/75/22 42/76/22 25/77/22 26/78/22
f 31/63/23 30/79/23 29/80/23 32/64/23
f 29/80/24 30/79/24 40/81/24 39/82/24
f 25/83/4 28/84/4 32/85/4 29/86/4
f 27/87/2 26/88/2 30/89/2 31/90/2
f 34/91/3 33/92/3 35/93/3 36/94/3
f 28/95/25 27/96/25 33/92/25 34/91/25
f 32/85/4 28/84/4 34/97/4 36/98/4
f 27/87/2 31/90/2 35/99/2 33/100/2
f 38/101/1 37/102/1 39/103/1 40/104/1
f 30/89/2 26/88/2 38/105/2 40/106/2
f 26/107/26 25/108/26 37/102/26 38/101/26
f 25/83/4 29/86/4 39/109/4 37/110/4
f 48/111/27 45/112/27 42/76/27 43/75/27
f 47/113/28 46/114/28 44/72/28 41/71/28
f 46/115/29 48/116/29 43/68/29 44/67/29
f 45/117/30 47/118/30 41/54/30 42/53/30
f 21/60/31 24/59/31 47/118/31 45/117/31
f 23/62/32 22/61/32 48/116/32 46/115/32
f 24/34/33 23/33/33 46/114/33 47/113/33
f 22/58/34 21/57/34 45/112/34 48/111/34
