# Blender v2.79 (sub 1) OBJ File: 'space_laser.blend'
# www.blender.org
mtllib space_laser.mtl
o Cube
v -1.000000 0.000000 1.000000
v -0.346663 0.606150 0.346663
v -1.000000 0.000000 -1.000000
v -0.346663 0.606150 -0.346663
v 1.000000 0.000000 1.000000
v 0.346663 0.606150 0.346663
v 1.000000 0.000000 -1.000000
v 0.346663 0.606150 -0.346663
v -1.000000 0.500000 1.000000
v -1.000000 0.500000 -1.000000
v 1.000000 0.500000 -1.000000
v 1.000000 0.500000 1.000000
v -0.152561 1.063131 0.152561
v -0.152561 1.063131 -0.152561
v 0.152561 1.063131 -0.152561
v 0.152561 1.063131 0.152561
v -0.346663 0.975138 0.346663
v -0.346663 0.975138 -0.346663
v 0.346663 0.975138 -0.346663
v 0.346663 0.975138 0.346663
v -0.152561 1.695909 0.152561
v -0.152561 1.695909 -0.152561
v 0.152561 1.695909 -0.152561
v 0.152561 1.695909 0.152561
v -0.302296 1.925691 0.302296
v -0.302296 1.925691 -0.302296
v 0.302296 1.925691 -0.302296
v 0.302296 1.925691 0.302296
v -0.561416 2.147899 0.561416
v -0.561416 2.147899 -0.561416
v 0.561416 2.147899 -0.561416
v 0.561416 2.147899 0.561416
v -0.561416 2.468872 0.561416
v -0.561416 2.468872 -0.561416
v 0.561416 2.468872 -0.561416
v 0.561416 2.468872 0.561416
v -0.304274 2.633258 0.304274
v -0.304274 2.633258 -0.304274
v 0.304274 2.633258 -0.304274
v 0.304274 2.633258 0.304274
v -0.111906 4.178898 0.111906
v -0.111906 4.178898 -0.111906
v 0.111906 4.178898 -0.111906
v 0.111906 4.178898 0.111906
v -0.152006 4.349674 0.152006
v -0.152006 4.349674 -0.152006
v 0.152006 4.349674 -0.152006
v 0.152006 4.349674 0.152006
v -0.037346 4.476012 0.037346
v -0.037346 4.476012 -0.037346
v 0.037346 4.476012 -0.037346
v 0.037346 4.476012 0.037346
v -0.431083 2.937126 0.431083
v -0.431083 2.783836 0.431083
v -0.431083 2.783836 -0.431083
v -0.431083 2.937126 -0.431083
v 0.431083 2.783836 0.431083
v 0.431083 2.937126 0.431083
v 0.431083 2.783836 -0.431083
v 0.431083 2.937126 -0.431083
v -0.532042 2.783836 -0.532042
v -0.532042 2.783836 0.532042
v -0.532042 2.937126 0.532042
v -0.532042 2.937126 -0.532042
v 0.532042 2.783836 -0.532042
v 0.532042 2.937126 -0.532042
v 0.532042 2.783836 0.532042
v 0.532042 2.937126 0.532042
v -0.356770 3.273912 0.356770
v -0.356770 3.147047 0.356770
v -0.356770 3.147047 -0.356770
v -0.356770 3.273912 -0.356770
v 0.356770 3.147047 0.356770
v 0.356770 3.273912 0.356770
v 0.356770 3.147047 -0.356770
v 0.356770 3.273912 -0.356770
v -0.440325 3.147047 -0.440325
v -0.440325 3.147047 0.440325
v -0.440325 3.273912 0.440325
v -0.440325 3.273912 -0.440325
v 0.440325 3.147047 -0.440325
v 0.440325 3.273912 -0.440325
v 0.440325 3.147047 0.440325
v 0.440325 3.273912 0.440325
v -0.301329 3.653927 0.301329
v -0.301329 3.546776 0.301329
v -0.301329 3.546776 -0.301329
v -0.301329 3.653927 -0.301329
v 0.301329 3.546776 0.301329
v 0.301329 3.653927 0.301329
v 0.301329 3.546776 -0.301329
v 0.301329 3.653927 -0.301329
v -0.371900 3.546776 -0.371900
v -0.371900 3.546776 0.371900
v -0.371900 3.653927 0.371900
v -0.371900 3.653927 -0.371900
v 0.371900 3.546776 -0.371900
v 0.371900 3.653927 -0.371900
v 0.371900 3.546776 0.371900
v 0.371900 3.653927 0.371900
v -0.235536 3.942607 0.235536
v -0.235536 3.858852 0.235536
v -0.235536 3.858852 -0.235536
v -0.235536 3.942607 -0.235536
v 0.235536 3.858852 0.235536
v 0.235536 3.942607 0.235536
v 0.235536 3.858852 -0.235536
v 0.235536 3.942607 -0.235536
v -0.290698 3.858852 -0.290698
v -0.290698 3.858852 0.290698
v -0.290698 3.942607 0.290698
v -0.290698 3.942607 -0.290698
v 0.290698 3.858852 -0.290698
v 0.290698 3.942607 -0.290698
v 0.290698 3.858852 0.290698
v 0.290698 3.942607 0.290698
vt 0.000562 0.788421
vt 0.306150 0.864818
vt 0.000562 0.864818
vt 0.000562 0.865941
vt 0.306150 0.942338
vt 0.000562 0.942338
vt 0.614653 0.910238
vt 0.309064 0.833841
vt 0.614653 0.833841
vt 0.960024 0.919396
vt 0.654435 0.842999
vt 0.960024 0.842999
vt 0.306150 0.614613
vt 0.000562 0.309024
vt 0.306150 0.309024
vt 0.793184 0.562186
vt 0.687248 0.618566
vt 0.687248 0.562186
vt 0.101448 0.207212
vt 0.000589 0.000562
vt 0.101272 0.101432
vt 0.207236 0.207030
vt 0.000562 0.307901
vt 0.207050 0.101252
vt 0.307941 0.307901
vt 0.307914 0.000562
vt 0.793184 0.281374
vt 0.687248 0.337753
vt 0.687248 0.281374
vt 0.793184 0.000562
vt 0.687248 0.056941
vt 0.687248 0.000562
vt 0.280251 0.754485
vt 0.223871 0.648549
vt 0.280251 0.648549
vt 0.191308 0.678207
vt 0.223871 0.754485
vt 0.191308 0.724827
vt 0.716906 0.370316
vt 0.793184 0.337753
vt 0.763526 0.370316
vt 0.716906 0.089504
vt 0.793184 0.056941
vt 0.763526 0.089504
vt 0.716906 0.651129
vt 0.793184 0.618566
vt 0.763526 0.651129
vt 0.716906 0.186189
vt 0.763526 0.186189
vt 0.694027 0.228095
vt 0.094624 0.678207
vt 0.716906 0.747814
vt 0.716906 0.467001
vt 0.786405 0.789720
vt 0.654435 0.841876
vt 0.694027 0.789720
vt 0.094624 0.724827
vt 0.052718 0.655328
vt 0.763526 0.747814
vt 0.763526 0.467001
vt 0.694027 0.508907
vt 0.653312 0.335347
vt 0.481750 0.384389
vt 0.481750 0.335347
vt 0.786405 0.508907
vt 0.654435 0.561063
vt 0.786405 0.228095
vt 0.654435 0.280251
vt 0.052718 0.747706
vt 0.000562 0.615736
vt 0.653312 0.049604
vt 0.521040 0.096237
vt 0.481750 0.049604
vt 0.653312 0.000562
vt 0.481750 0.000562
vt 0.480627 0.335347
vt 0.309064 0.384389
vt 0.309064 0.335347
vt 0.480627 0.000562
vt 0.309064 0.049604
vt 0.309064 0.000562
vt 0.441337 0.431022
vt 0.377747 0.669009
vt 0.348354 0.431022
vt 0.480627 0.384389
vt 0.480627 0.049604
vt 0.348354 0.096237
vt 0.653312 0.384389
vt 0.521040 0.431022
vt 0.827120 0.313403
vt 0.853924 0.353728
vt 0.827120 0.347601
vt 0.441337 0.096237
vt 0.377747 0.334224
vt 0.614022 0.431022
vt 0.550432 0.669009
vt 0.614022 0.096237
vt 0.550432 0.334224
vt 0.862472 0.362277
vt 0.891405 0.336208
vt 0.908924 0.362277
vt 0.944276 0.347601
vt 0.917473 0.307276
vt 0.944276 0.313403
vt 0.868599 0.389080
vt 0.902797 0.389080
vt 0.902797 0.271924
vt 0.862473 0.298728
vt 0.868600 0.271924
vt 0.879992 0.324796
vt 0.891405 0.324796
vt 0.908924 0.298727
vt 0.853924 0.307277
vt 0.879992 0.336208
vt 0.917473 0.353728
vt 0.472773 0.911361
vt 0.635359 0.934783
vt 0.472773 0.934783
vt 0.309064 0.911361
vt 0.471650 0.934783
vt 0.309064 0.934783
vt 0.817021 0.943941
vt 0.654435 0.920519
vt 0.817021 0.920519
vt 0.471650 0.959328
vt 0.309064 0.935906
vt 0.471650 0.935906
vt 0.604507 0.959328
vt 0.472773 0.935906
vt 0.604507 0.935906
vt 0.000562 0.943461
vt 0.132296 0.966883
vt 0.000562 0.966883
vt 0.488199 0.817292
vt 0.472773 0.670132
vt 0.488199 0.685558
vt 0.456224 0.817292
vt 0.309064 0.832718
vt 0.324490 0.817292
vt 0.635359 0.670132
vt 0.619933 0.685558
vt 0.456224 0.685558
vt 0.471650 0.832718
vt 0.635359 0.832718
vt 0.619933 0.817292
vt 0.324490 0.685558
vt 0.471650 0.670132
vt 0.472773 0.832718
vt 0.309064 0.670132
vt 0.827120 0.799660
vt 0.958854 0.823082
vt 0.827120 0.823082
vt 0.949878 0.943941
vt 0.818144 0.920519
vt 0.949878 0.920519
vt 0.309064 0.960451
vt 0.443623 0.979835
vt 0.309064 0.979835
vt 0.133419 0.943461
vt 0.267977 0.962846
vt 0.133419 0.962846
vt 0.788993 0.964448
vt 0.654435 0.945064
vt 0.788993 0.945064
vt 0.924675 0.964448
vt 0.790117 0.945064
vt 0.924675 0.945064
vt 0.763460 0.984956
vt 0.654435 0.965571
vt 0.763460 0.965571
vt 0.444746 0.960451
vt 0.553771 0.979835
vt 0.444746 0.979835
vt 0.839887 0.258035
vt 0.827120 0.136243
vt 0.839887 0.149010
vt 0.948912 0.122353
vt 0.827120 0.135120
vt 0.839887 0.122353
vt 0.961679 0.136243
vt 0.948912 0.149010
vt 0.948912 0.013328
vt 0.961679 0.135120
vt 0.961679 0.270801
vt 0.948912 0.258034
vt 0.839887 0.013328
vt 0.961679 0.000562
vt 0.827120 0.270801
vt 0.827120 0.000562
vt 0.764583 0.965571
vt 0.873608 0.984956
vt 0.764583 0.984956
vt 0.242443 0.983353
vt 0.133419 0.963969
vt 0.242443 0.963969
vt 0.000562 0.968006
vt 0.114210 0.984378
vt 0.000562 0.984378
vt 0.309064 0.980958
vt 0.422713 0.997330
vt 0.309064 0.997330
vt 0.988379 0.981943
vt 0.874731 0.965571
vt 0.988379 0.965571
vt 0.940769 0.840577
vt 0.827120 0.824205
vt 0.940769 0.824205
vt 0.646977 0.994318
vt 0.554894 0.977946
vt 0.646977 0.977946
vt 0.423836 0.980958
vt 0.515918 0.997330
vt 0.423836 0.997330
vt 0.837903 0.493069
vt 0.827120 0.390203
vt 0.837903 0.400986
vt 0.837903 0.607840
vt 0.827120 0.504975
vt 0.837903 0.515758
vt 0.940769 0.390203
vt 0.929986 0.400986
vt 0.929986 0.607840
vt 0.827120 0.618623
vt 0.940769 0.503852
vt 0.929986 0.493069
vt 0.929986 0.515758
vt 0.940769 0.618623
vt 0.827120 0.503852
vt 0.940769 0.504975
vt 0.874731 0.983066
vt 0.966814 0.999438
vt 0.874731 0.999438
vt 0.646977 0.976823
vt 0.554894 0.960451
vt 0.646977 0.960451
vt 0.133419 0.984476
vt 0.222253 0.997274
vt 0.133419 0.997274
vt 0.000562 0.985502
vt 0.089396 0.998299
vt 0.000562 0.998299
vt 0.833226 0.998876
vt 0.744392 0.986079
vt 0.833226 0.986079
vt 0.743269 0.998876
vt 0.654435 0.986079
vt 0.743269 0.986079
vt 0.989054 0.674305
vt 0.917077 0.661507
vt 0.989054 0.661507
vt 0.917077 0.619746
vt 0.989055 0.632544
vt 0.917077 0.632544
vt 0.835549 0.790109
vt 0.827120 0.709703
vt 0.835549 0.718132
vt 0.835549 0.700152
vt 0.827120 0.619746
vt 0.835549 0.628175
vt 0.915954 0.709703
vt 0.907526 0.718132
vt 0.907526 0.700152
vt 0.827120 0.708580
vt 0.915954 0.798537
vt 0.907526 0.790109
vt 0.907526 0.628175
vt 0.915954 0.708580
vt 0.827120 0.798537
vt 0.915954 0.619746
vt 0.917077 0.633667
vt 0.989055 0.646464
vt 0.917077 0.646464
vt 0.989054 0.660384
vt 0.917077 0.647587
vt 0.989054 0.647587
vt 0.306150 0.788421
vt 0.306150 0.865941
vt 0.309064 0.910238
vt 0.654435 0.919396
vt 0.000562 0.614613
vt 0.825997 0.841876
vt 0.825997 0.561063
vt 0.825997 0.280251
vt 0.000562 0.787298
vt 0.411944 0.669008
vt 0.411944 0.334224
vt 0.584630 0.669008
vt 0.584630 0.334224
vt 0.635359 0.911361
vt 0.471650 0.911361
vt 0.654435 0.943941
vt 0.309064 0.959328
vt 0.472773 0.959328
vt 0.132296 0.943461
vt 0.958854 0.799660
vt 0.818144 0.943941
vt 0.443623 0.960451
vt 0.267977 0.943461
vt 0.654435 0.964448
vt 0.790116 0.964448
vt 0.654435 0.984956
vt 0.553771 0.960451
vt 0.873608 0.965571
vt 0.133419 0.983353
vt 0.114210 0.968006
vt 0.422713 0.980958
vt 0.874731 0.981943
vt 0.827120 0.840577
vt 0.554894 0.994318
vt 0.515918 0.980958
vt 0.966814 0.983066
vt 0.554894 0.976823
vt 0.222253 0.984476
vt 0.089396 0.985502
vt 0.744392 0.998876
vt 0.654435 0.998876
vt 0.917077 0.674305
vt 0.989055 0.619746
vt 0.989055 0.633667
vt 0.917077 0.660384
vn -1.0000 0.0000 0.0000
vn 0.0000 0.0000 -1.0000
vn 1.0000 0.0000 0.0000
vn 0.0000 0.0000 1.0000
vn 0.0000 -1.0000 0.0000
vn -0.1604 0.9871 0.0000
vn 0.0000 0.9871 -0.1604
vn 0.1604 0.9871 0.0000
vn 0.0000 0.9871 0.1604
vn -0.4129 0.9108 0.0000
vn 0.0000 0.9108 -0.4129
vn 0.4129 0.9108 0.0000
vn 0.0000 0.9108 0.4129
vn 0.8378 -0.5460 0.0000
vn 0.0000 -0.7591 0.6510
vn -0.8378 -0.5460 0.0000
vn 0.0000 -0.5460 0.8378
vn 0.0000 -0.5460 -0.8378
vn 0.0000 -0.7591 -0.6510
vn 0.6510 -0.7591 0.0000
vn -0.6510 -0.7591 0.0000
vn -0.5386 0.8425 0.0000
vn 0.0000 0.1235 0.9923
vn 0.0000 0.8425 0.5386
vn 0.0000 0.8425 -0.5386
vn 0.5386 0.8425 0.0000
vn 0.9735 -0.2286 0.0000
vn 0.0000 0.1235 -0.9923
vn 0.9923 0.1235 0.0000
vn -0.9923 0.1235 0.0000
vn 0.0000 0.6721 0.7405
vn -0.9735 -0.2286 0.0000
vn 0.0000 -0.2286 0.9735
vn 0.0000 -0.2286 -0.9735
vn 0.0000 1.0000 0.0000
vn 0.0000 0.6721 -0.7405
vn 0.7405 0.6721 0.0000
vn -0.7405 0.6721 0.0000
usemtl Material
f 9/1/1 3/2/1 1/3/1
f 10/4/2 7/5/2 3/6/2
f 11/7/3 5/8/3 7/9/3
f 12/10/4 1/11/4 5/12/4
f 7/13/5 1/14/5 3/15/5
f 6/16/4 17/17/4 2/18/4
f 4/19/6 9/20/6 2/21/6
f 8/22/7 10/23/7 4/19/7
f 6/24/8 11/25/8 8/22/8
f 2/21/9 12/26/9 6/24/9
f 4/27/2 19/28/2 8/29/2
f 8/30/3 20/31/3 6/32/3
f 2/33/1 18/34/1 4/35/1
f 14/36/10 17/37/10 13/38/10
f 15/39/11 18/40/11 14/41/11
f 16/42/12 19/43/12 15/44/12
f 13/45/13 20/46/13 16/47/13
f 15/44/3 24/48/3 16/42/3
f 23/49/14 28/50/14 24/48/14
f 13/38/1 22/51/1 14/36/1
f 16/47/4 21/52/4 13/45/4
f 14/41/2 23/53/2 15/39/2
f 28/54/15 29/55/15 25/56/15
f 21/57/16 26/58/16 22/51/16
f 24/59/17 25/56/17 21/52/17
f 22/60/18 27/61/18 23/53/18
f 31/62/3 36/63/3 32/64/3
f 26/65/19 31/66/19 27/61/19
f 27/67/20 32/68/20 28/50/20
f 25/69/21 30/70/21 26/58/21
f 33/71/22 38/72/22 34/73/22
f 29/74/1 34/73/1 30/75/1
f 32/76/4 33/77/4 29/78/4
f 30/79/2 35/80/2 31/81/2
f 40/82/23 41/83/23 37/84/23
f 36/85/24 37/84/24 33/77/24
f 34/86/25 39/87/25 35/80/25
f 35/88/26 40/89/26 36/63/26
f 43/90/27 48/91/27 44/92/27
f 38/93/28 43/94/28 39/87/28
f 39/95/29 44/96/29 40/89/29
f 37/97/30 42/98/30 38/72/30
f 48/99/31 49/100/31 45/101/31
f 41/102/32 46/103/32 42/104/32
f 44/105/33 45/101/33 41/106/33
f 42/107/34 47/108/34 43/109/34
f 49/100/35 51/110/35 50/111/35
f 46/112/36 51/110/36 47/108/36
f 47/113/37 52/114/37 48/91/37
f 45/115/38 50/111/38 46/103/38
f 64/116/2 65/117/2 61/118/2
f 63/119/1 61/120/1 62/121/1
f 66/122/3 67/123/3 65/124/3
f 68/125/4 62/126/4 67/127/4
f 56/128/3 54/129/3 55/130/3
f 53/131/2 57/132/2 54/133/2
f 54/134/5 61/135/5 55/136/5
f 56/137/35 63/138/35 53/139/35
f 55/136/5 65/140/5 59/141/5
f 60/142/35 64/143/35 56/137/35
f 59/141/5 67/144/5 57/145/5
f 58/146/35 66/147/35 60/142/35
f 57/145/5 62/148/5 54/134/5
f 53/139/35 68/149/35 58/146/35
f 58/150/1 59/151/1 57/152/1
f 60/153/4 55/154/4 59/155/4
f 80/156/2 81/157/2 77/158/2
f 79/159/1 77/160/1 78/161/1
f 82/162/3 83/163/3 81/164/3
f 84/165/4 78/166/4 83/167/4
f 72/168/3 70/169/3 71/170/3
f 69/171/2 73/172/2 70/173/2
f 70/174/5 77/175/5 71/176/5
f 72/177/35 79/178/35 69/179/35
f 71/176/5 81/180/5 75/181/5
f 76/182/35 80/183/35 72/177/35
f 75/181/5 83/184/5 73/185/5
f 74/186/35 82/187/35 76/182/35
f 73/185/5 78/188/5 70/174/5
f 69/179/35 84/189/35 74/186/35
f 74/190/1 75/191/1 73/192/1
f 76/193/4 71/194/4 75/195/4
f 96/196/2 97/197/2 93/198/2
f 95/199/1 93/200/1 94/201/1
f 98/202/3 99/203/3 97/204/3
f 100/205/4 94/206/4 99/207/4
f 88/208/3 86/209/3 87/210/3
f 85/211/2 89/212/2 86/213/2
f 86/214/5 93/215/5 87/216/5
f 88/217/35 95/218/35 85/219/35
f 87/216/5 97/220/5 91/221/5
f 92/222/35 96/223/35 88/217/35
f 91/221/5 99/224/5 89/225/5
f 90/226/35 98/227/35 92/222/35
f 89/225/5 94/228/5 86/214/5
f 85/219/35 100/229/35 90/226/35
f 90/230/1 91/231/1 89/232/1
f 92/233/4 87/234/4 91/235/4
f 112/236/2 113/237/2 109/238/2
f 111/239/1 109/240/1 110/241/1
f 114/242/3 115/243/3 113/244/3
f 116/245/4 110/246/4 115/247/4
f 104/248/3 102/249/3 103/250/3
f 101/251/2 105/252/2 102/253/2
f 102/254/5 109/255/5 103/256/5
f 104/257/35 111/258/35 101/259/35
f 103/256/5 113/260/5 107/261/5
f 108/262/35 112/263/35 104/257/35
f 107/261/5 115/264/5 105/265/5
f 106/266/35 114/267/35 108/262/35
f 105/265/5 110/268/5 102/254/5
f 101/259/35 116/269/35 106/266/35
f 106/270/1 107/271/1 105/272/1
f 108/273/4 103/274/4 107/275/4
f 9/1/1 10/276/1 3/2/1
f 10/4/2 11/277/2 7/5/2
f 11/7/3 12/278/3 5/8/3
f 12/10/4 9/279/4 1/11/4
f 7/13/5 5/280/5 1/14/5
f 6/16/4 20/46/4 17/17/4
f 4/19/6 10/23/6 9/20/6
f 8/22/7 11/25/7 10/23/7
f 6/24/8 12/26/8 11/25/8
f 2/21/9 9/20/9 12/26/9
f 4/27/2 18/40/2 19/28/2
f 8/30/3 19/43/3 20/31/3
f 2/33/1 17/37/1 18/34/1
f 14/36/10 18/34/10 17/37/10
f 15/39/11 19/28/11 18/40/11
f 16/42/12 20/31/12 19/43/12
f 13/45/13 17/17/13 20/46/13
f 15/44/3 23/49/3 24/48/3
f 23/49/14 27/67/14 28/50/14
f 13/38/1 21/57/1 22/51/1
f 16/47/4 24/59/4 21/52/4
f 14/41/2 22/60/2 23/53/2
f 28/54/15 32/281/15 29/55/15
f 21/57/16 25/69/16 26/58/16
f 24/59/17 28/54/17 25/56/17
f 22/60/18 26/65/18 27/61/18
f 31/62/3 35/88/3 36/63/3
f 26/65/19 30/282/19 31/66/19
f 27/67/20 31/283/20 32/68/20
f 25/69/21 29/284/21 30/70/21
f 33/71/22 37/97/22 38/72/22
f 29/74/1 33/71/1 34/73/1
f 32/76/4 36/85/4 33/77/4
f 30/79/2 34/86/2 35/80/2
f 40/82/23 44/285/23 41/83/23
f 36/85/24 40/82/24 37/84/24
f 34/86/25 38/93/25 39/87/25
f 35/88/26 39/95/26 40/89/26
f 43/90/27 47/113/27 48/91/27
f 38/93/28 42/286/28 43/94/28
f 39/95/29 43/287/29 44/96/29
f 37/97/30 41/288/30 42/98/30
f 48/99/31 52/114/31 49/100/31
f 41/102/32 45/115/32 46/103/32
f 44/105/33 48/99/33 45/101/33
f 42/107/34 46/112/34 47/108/34
f 49/100/35 52/114/35 51/110/35
f 46/112/36 50/111/36 51/110/36
f 47/113/37 51/110/37 52/114/37
f 45/115/38 49/100/38 50/111/38
f 64/116/2 66/289/2 65/117/2
f 63/119/1 64/290/1 61/120/1
f 66/122/3 68/291/3 67/123/3
f 68/125/4 63/292/4 62/126/4
f 56/128/3 53/293/3 54/129/3
f 53/131/2 58/294/2 57/132/2
f 54/134/5 62/148/5 61/135/5
f 56/137/35 64/143/35 63/138/35
f 55/136/5 61/135/5 65/140/5
f 60/142/35 66/147/35 64/143/35
f 59/141/5 65/140/5 67/144/5
f 58/146/35 68/149/35 66/147/35
f 57/145/5 67/144/5 62/148/5
f 53/139/35 63/138/35 68/149/35
f 58/150/1 60/295/1 59/151/1
f 60/153/4 56/296/4 55/154/4
f 80/156/2 82/297/2 81/157/2
f 79/159/1 80/298/1 77/160/1
f 82/162/3 84/299/3 83/163/3
f 84/165/4 79/300/4 78/166/4
f 72/168/3 69/301/3 70/169/3
f 69/171/2 74/302/2 73/172/2
f 70/174/5 78/188/5 77/175/5
f 72/177/35 80/183/35 79/178/35
f 71/176/5 77/175/5 81/180/5
f 76/182/35 82/187/35 80/183/35
f 75/181/5 81/180/5 83/184/5
f 74/186/35 84/189/35 82/187/35
f 73/185/5 83/184/5 78/188/5
f 69/179/35 79/178/35 84/189/35
f 74/190/1 76/303/1 75/191/1
f 76/193/4 72/304/4 71/194/4
f 96/196/2 98/305/2 97/197/2
f 95/199/1 96/306/1 93/200/1
f 98/202/3 100/307/3 99/203/3
f 100/205/4 95/308/4 94/206/4
f 88/208/3 85/309/3 86/209/3
f 85/211/2 90/310/2 89/212/2
f 86/214/5 94/228/5 93/215/5
f 88/217/35 96/223/35 95/218/35
f 87/216/5 93/215/5 97/220/5
f 92/222/35 98/227/35 96/223/35
f 91/221/5 97/220/5 99/224/5
f 90/226/35 100/229/35 98/227/35
f 89/225/5 99/224/5 94/228/5
f 85/219/35 95/218/35 100/229/35
f 90/230/1 92/311/1 91/231/1
f 92/233/4 88/312/4 87/234/4
f 112/236/2 114/313/2 113/237/2
f 111/239/1 112/314/1 109/240/1
f 114/242/3 116/315/3 115/243/3
f 116/245/4 111/316/4 110/246/4
f 104/248/3 101/317/3 102/249/3
f 101/251/2 106/318/2 105/252/2
f 102/254/5 110/268/5 109/255/5
f 104/257/35 112/263/35 111/258/35
f 103/256/5 109/255/5 113/260/5
f 108/262/35 114/267/35 112/263/35
f 107/261/5 113/260/5 115/264/5
f 106/266/35 116/269/35 114/267/35
f 105/265/5 115/264/5 110/268/5
f 101/259/35 111/258/35 116/269/35
f 106/270/1 108/319/1 107/271/1
f 108/273/4 104/320/4 103/274/4
