# Copyright © InsomniaKitten 2018

mtllib strut_slope.mtl

o strut_slope

# slope
v 1.0 0.0 1.0
v 0.0 0.0 0.0
v 0.0 1.0 0.0
v 1.0 1.0 1.0

# slope inv
v 0.99 0.99 0.99
v 0.01 0.99 0.01
v 0.01 0.01 0.01
v 0.99 0.01 0.99

# south
v 1.0 1.0 1.0
v 0.0 1.0 1.0
v 0.0 0.0 1.0
v 1.0 0.0 1.0

# south inv
v 0.99 0.01 0.99
v 0.01 0.01 0.99
v 0.01 0.99 0.99
v 0.99 0.99 0.99

# west
v 0.0 0.0 1.0
v 0.0 1.0 1.0
v 0.0 1.0 0.0
v 0.0 0.0 0.0

# west inv
v 0.01 0.01 0.01
v 0.01 0.99 0.01
v 0.01 0.99 0.99
v 0.01 0.01 0.99

# up
v 0.0 1.0 1.0
v 1.0 1.0 1.0
v 0.0 1.0 0.0

# up inv
v 0.01 0.99 0.01
v 0.99 0.99 0.99
v 0.01 0.99 0.99

# down
v 0.0 0.0 1.0
v 0.0 0.0 0.0
v 1.0 0.0 1.0

# down inv
v 0.99 0.01 0.99
v 0.01 0.01 0.01
v 0.01 0.01 0.99

#slope
vt 0.0 1.0
vt 1.0 1.0
vt 1.0 0.0
vt 0.0 0.0

#slope inv
vt 1.0 0.0
vt 0.0 0.0
vt 0.0 1.0
vt 1.0 1.0

# south
vt 1.0 0.0
vt 0.0 0.0
vt 0.0 1.0
vt 1.0 1.0

# south inv
vt 0.0 1.0
vt 1.0 1.0
vt 1.0 0.0
vt 0.0 0.0

# west
vt 1.0 1.0
vt 1.0 0.0
vt 0.0 0.0
vt 0.0 1.0

# west inv
vt 1.0 1.0
vt 1.0 0.0
vt 0.0 0.0
vt 0.0 1.0

# up
vt 1.0 0.0
vt 1.0 1.0
vt 0.0 0.0

# up inv
vt 0.0 1.0
vt 1.0 0.0
vt 0.0 0.0

# down
vt 0.0 0.0
vt 1.0 0.0
vt 0.0 1.0

# down inv
vt 1.0 1.0
vt 0.0 0.0
vt 0.0 1.0

# slope
vn 1.0 0.0 -1.0

# slope inv
vn -1.0 0.0 1.0

# south
vn 0.0 0.0 1.0

# south inv
vn 0.0 0.0 -1.0

# west
vn -1.0 0.0 0.0

# west inv
vn 1.0 0.0 0.0

# up
vn 0.0 1.0 0.0

# up inv
vn 0.0 -1.0 0.0

# down
vn 0.0 -1.0 0.0

# down inv
vn 0.0 1.0 0.0

usemtl slope

# slope
f 1/1/1 2/2/1 3/3/1 4/4/1

# slope inv
f 5/5/2 6/6/2 7/7/2 8/8/2

usemtl side

# south
f 9/9/3 10/10/3 11/11/3 12/12/3

# south inv
f 13/13/4 14/14/4 15/15/4 16/16/4

# west
f 17/17/5 18/18/5 19/19/5 20/20/5

# west inv
f 21/21/6 22/22/6 23/23/6 24/24/6

usemtl cap

# up
f 25/25/7 26/26/7 27/27/7

# up inv
f 28/28/8 29/29/8 30/30/8

# down
f 31/31/9 32/32/9 33/33/9

# down inv
f 34/34/10 35/35/10 36/36/10
